<mxfile host="Electron" agent="Mozilla/5.0 (Windows NT 10.0; Win64; x64) AppleWebKit/537.36 (KHTML, like Gecko) draw.io/24.7.5 Chrome/126.0.6478.183 Electron/31.3.0 Safari/537.36" version="24.7.5">
  <diagram name="Page-1" id="2OD4SM8jxPekZYmMoRoa">
    <mxGraphModel dx="612" dy="525" grid="1" gridSize="10" guides="1" tooltips="1" connect="1" arrows="1" fold="1" page="0" pageScale="1" pageWidth="827" pageHeight="1169" math="0" shadow="0">
      <root>
        <mxCell id="0" />
        <mxCell id="1" parent="0" />
        <mxCell id="LwmswJ-lS-nHnzN2LPLg-1" value="" style="shape=trapezoid;perimeter=trapezoidPerimeter;whiteSpace=wrap;html=1;fixedSize=1;rotation=90;strokeWidth=2;" parent="1" vertex="1">
          <mxGeometry x="712" y="245" width="120" height="70" as="geometry" />
        </mxCell>
        <mxCell id="1okZj3iLOT3e2Y5lFoiS-7" value="" style="shape=trapezoid;perimeter=trapezoidPerimeter;whiteSpace=wrap;html=1;fixedSize=1;rotation=90;strokeWidth=2;" parent="1" vertex="1">
          <mxGeometry x="185" y="410" width="69" height="42.5" as="geometry" />
        </mxCell>
        <mxCell id="t1KUj5Thw46-gsd1N_Hx-14" value="" style="shape=trapezoid;perimeter=trapezoidPerimeter;whiteSpace=wrap;html=1;fixedSize=1;rotation=90;strokeWidth=2;" parent="1" vertex="1">
          <mxGeometry x="390" y="359" width="80" height="43" as="geometry" />
        </mxCell>
        <mxCell id="t1KUj5Thw46-gsd1N_Hx-18" value="&lt;b style=&quot;font-size: 11px;&quot;&gt;&lt;font style=&quot;font-size: 11px;&quot;&gt;Branch&lt;/font&gt;&lt;/b&gt;&lt;div style=&quot;font-size: 11px;&quot;&gt;&lt;b style=&quot;&quot;&gt;&lt;font style=&quot;font-size: 11px;&quot;&gt;Comp&lt;/font&gt;&lt;/b&gt;&lt;/div&gt;" style="text;strokeColor=none;align=center;fillColor=none;html=1;verticalAlign=middle;whiteSpace=wrap;rounded=0;" parent="1" vertex="1">
          <mxGeometry x="400" y="370" width="60" height="24.5" as="geometry" />
        </mxCell>
        <mxCell id="1okZj3iLOT3e2Y5lFoiS-46" value="&lt;b&gt;DataA&lt;/b&gt;" style="endArrow=classicThin;html=1;rounded=0;exitX=1;exitY=0.25;exitDx=0;exitDy=0;strokeWidth=2;endFill=1;entryX=-0.048;entryY=0.259;entryDx=0;entryDy=0;edgeStyle=elbowEdgeStyle;entryPerimeter=0;" parent="1" source="t3lFgOEBOsQBDX6AvOPy-37" edge="1">
          <mxGeometry x="0.8333" y="12" width="50" height="50" relative="1" as="geometry">
            <mxPoint x="354.72" y="249.93999999999994" as="sourcePoint" />
            <mxPoint x="497.55999999999995" y="182.08999999999992" as="targetPoint" />
            <Array as="points">
              <mxPoint x="310" y="220" />
            </Array>
            <mxPoint as="offset" />
          </mxGeometry>
        </mxCell>
        <mxCell id="t1KUj5Thw46-gsd1N_Hx-6" value="&lt;b&gt;inst&amp;nbsp;&amp;nbsp;&lt;/b&gt;" style="endArrow=none;html=1;rounded=0;strokeWidth=2;exitX=0.972;exitY=0.4;exitDx=0;exitDy=0;exitPerimeter=0;" parent="1" edge="1" source="t1KUj5Thw46-gsd1N_Hx-126">
          <mxGeometry x="0.3515" y="10" width="50" height="50" relative="1" as="geometry">
            <mxPoint x="61.08999999999992" y="278.99000000000024" as="sourcePoint" />
            <mxPoint x="71" y="280" as="targetPoint" />
            <mxPoint as="offset" />
          </mxGeometry>
        </mxCell>
        <mxCell id="1okZj3iLOT3e2Y5lFoiS-25" value="" style="edgeStyle=orthogonalEdgeStyle;rounded=0;orthogonalLoop=1;jettySize=auto;html=1;strokeWidth=2;endArrow=classicThin;endFill=1;exitX=1;exitY=0.5;exitDx=0;exitDy=0;" parent="1" source="t3lFgOEBOsQBDX6AvOPy-10" edge="1">
          <mxGeometry relative="1" as="geometry">
            <mxPoint x="-109" y="280" as="targetPoint" />
            <mxPoint x="-174" y="280" as="sourcePoint" />
          </mxGeometry>
        </mxCell>
        <mxCell id="1okZj3iLOT3e2Y5lFoiS-4" value="&lt;font style=&quot;font-size: 22px;&quot;&gt;&lt;b&gt;+&lt;/b&gt;&lt;/font&gt;" style="shape=trapezoid;perimeter=trapezoidPerimeter;whiteSpace=wrap;html=1;fixedSize=1;rotation=90;strokeWidth=2;" parent="1" vertex="1">
          <mxGeometry x="-118.67" y="500" width="70.36" height="22.66" as="geometry" />
        </mxCell>
        <mxCell id="1okZj3iLOT3e2Y5lFoiS-24" value="" style="endArrow=classicThin;html=1;rounded=0;exitX=0.5;exitY=0;exitDx=0;exitDy=0;strokeWidth=2;endFill=1;entryX=0;entryY=0.5;entryDx=0;entryDy=0;" parent="1" source="t1KUj5Thw46-gsd1N_Hx-9" target="t3lFgOEBOsQBDX6AvOPy-10" edge="1">
          <mxGeometry width="50" height="50" relative="1" as="geometry">
            <mxPoint x="-244" y="280" as="sourcePoint" />
            <mxPoint x="-249" y="280" as="targetPoint" />
            <Array as="points" />
          </mxGeometry>
        </mxCell>
        <mxCell id="1okZj3iLOT3e2Y5lFoiS-26" value="pc" style="endArrow=classicThin;html=1;rounded=0;entryX=0.202;entryY=1.042;entryDx=0;entryDy=0;strokeWidth=2;endFill=1;entryPerimeter=0;" parent="1" target="1okZj3iLOT3e2Y5lFoiS-4" edge="1">
          <mxGeometry width="50" height="50" relative="1" as="geometry">
            <mxPoint x="-139" y="280" as="sourcePoint" />
            <mxPoint x="-99" y="190" as="targetPoint" />
            <Array as="points">
              <mxPoint x="-139" y="490" />
            </Array>
          </mxGeometry>
        </mxCell>
        <mxCell id="1okZj3iLOT3e2Y5lFoiS-34" value="&lt;b&gt;DataB&lt;/b&gt;" style="endArrow=classicThin;html=1;rounded=0;exitX=1;exitY=0.75;exitDx=0;exitDy=0;entryX=-0.011;entryY=0.543;entryDx=0;entryDy=0;strokeWidth=2;endFill=1;entryPerimeter=0;" parent="1" source="t3lFgOEBOsQBDX6AvOPy-37" edge="1">
          <mxGeometry x="0.4231" y="-10" width="50" height="50" relative="1" as="geometry">
            <mxPoint x="353.76" y="309.1600000000001" as="sourcePoint" />
            <mxPoint x="498.6700000000001" y="326.92999999999984" as="targetPoint" />
            <Array as="points">
              <mxPoint x="320" y="325" />
              <mxPoint x="320" y="220" />
              <mxPoint x="380" y="220" />
              <mxPoint x="480" y="220" />
              <mxPoint x="480" y="327" />
            </Array>
            <mxPoint x="10" y="-10" as="offset" />
          </mxGeometry>
        </mxCell>
        <mxCell id="1okZj3iLOT3e2Y5lFoiS-40" value="" style="endArrow=classicThin;html=1;rounded=0;entryX=0.5;entryY=1;entryDx=0;entryDy=0;strokeWidth=2;endFill=1;" parent="1" target="1okZj3iLOT3e2Y5lFoiS-7" edge="1">
          <mxGeometry width="50" height="50" relative="1" as="geometry">
            <mxPoint x="71" y="430" as="sourcePoint" />
            <mxPoint x="177.99999999999977" y="430" as="targetPoint" />
          </mxGeometry>
        </mxCell>
        <mxCell id="1okZj3iLOT3e2Y5lFoiS-41" value="&lt;b&gt;&lt;font style=&quot;font-size: 15px;&quot;&gt;Imm&lt;/font&gt;&lt;/b&gt;&lt;div&gt;&lt;b&gt;&lt;font style=&quot;font-size: 15px;&quot;&gt;Gen&lt;/font&gt;&lt;/b&gt;&lt;/div&gt;" style="text;strokeColor=none;align=center;fillColor=none;html=1;verticalAlign=middle;whiteSpace=wrap;rounded=0;" parent="1" vertex="1">
          <mxGeometry x="189.5" y="419" width="60" height="24.5" as="geometry" />
        </mxCell>
        <mxCell id="1okZj3iLOT3e2Y5lFoiS-43" value="" style="endArrow=classicThin;html=1;rounded=0;strokeWidth=1;endFill=1;entryX=-0.006;entryY=0.529;entryDx=0;entryDy=0;entryPerimeter=0;" parent="1" target="t3lFgOEBOsQBDX6AvOPy-37" edge="1">
          <mxGeometry width="50" height="50" relative="1" as="geometry">
            <mxPoint x="71" y="285" as="sourcePoint" />
            <mxPoint x="155" y="325" as="targetPoint" />
          </mxGeometry>
        </mxCell>
        <mxCell id="1okZj3iLOT3e2Y5lFoiS-44" value="" style="endArrow=classicThin;html=1;rounded=0;entryX=0.001;entryY=0.356;entryDx=0;entryDy=0;strokeWidth=1;endFill=1;entryPerimeter=0;" parent="1" edge="1">
          <mxGeometry width="50" height="50" relative="1" as="geometry">
            <mxPoint x="71" y="260" as="sourcePoint" />
            <mxPoint x="155.04600000000005" y="259.62" as="targetPoint" />
          </mxGeometry>
        </mxCell>
        <mxCell id="1okZj3iLOT3e2Y5lFoiS-47" value="" style="endArrow=classicThin;html=1;rounded=0;exitX=0.5;exitY=0;exitDx=0;exitDy=0;strokeWidth=2;endFill=1;entryX=0.648;entryY=1.015;entryDx=0;entryDy=0;entryPerimeter=0;" parent="1" source="t1KUj5Thw46-gsd1N_Hx-10" target="t1KUj5Thw46-gsd1N_Hx-50" edge="1">
          <mxGeometry width="50" height="50" relative="1" as="geometry">
            <mxPoint x="619.8" y="190" as="sourcePoint" />
            <mxPoint x="663.3" y="205.49999999999977" as="targetPoint" />
          </mxGeometry>
        </mxCell>
        <mxCell id="1okZj3iLOT3e2Y5lFoiS-54" value="" style="endArrow=classicThin;html=1;rounded=0;exitX=0.5;exitY=0;exitDx=0;exitDy=0;entryX=0.347;entryY=1.028;entryDx=0;entryDy=0;edgeStyle=orthogonalEdgeStyle;strokeWidth=2;endFill=1;entryPerimeter=0;" parent="1" source="t1KUj5Thw46-gsd1N_Hx-12" target="t1KUj5Thw46-gsd1N_Hx-51" edge="1">
          <mxGeometry width="50" height="50" relative="1" as="geometry">
            <mxPoint x="623.3999999999999" y="409.70000000000005" as="sourcePoint" />
            <mxPoint x="663.3" y="351.4999999999998" as="targetPoint" />
          </mxGeometry>
        </mxCell>
        <mxCell id="1okZj3iLOT3e2Y5lFoiS-55" value="&lt;b&gt;Imm&lt;/b&gt;" style="endArrow=classicThin;html=1;rounded=0;entryX=0.741;entryY=0.992;entryDx=0;entryDy=0;exitX=0.989;exitY=0.674;exitDx=0;exitDy=0;strokeWidth=2;endFill=1;entryPerimeter=0;exitPerimeter=0;" parent="1" target="t1KUj5Thw46-gsd1N_Hx-51" edge="1">
          <mxGeometry x="0.8133" y="10" width="50" height="50" relative="1" as="geometry">
            <mxPoint x="529.6700000000001" y="430.48" as="sourcePoint" />
            <mxPoint x="662.5500000000002" y="390.09199999999987" as="targetPoint" />
            <Array as="points">
              <mxPoint x="640" y="431" />
              <mxPoint x="640" y="380" />
            </Array>
            <mxPoint as="offset" />
          </mxGeometry>
        </mxCell>
        <mxCell id="1okZj3iLOT3e2Y5lFoiS-70" value="" style="endArrow=classicThin;html=1;rounded=0;entryX=-0.004;entryY=0.374;entryDx=0;entryDy=0;entryPerimeter=0;strokeWidth=2;endFill=1;exitX=0.506;exitY=0.996;exitDx=0;exitDy=0;exitPerimeter=0;" parent="1" edge="1">
          <mxGeometry width="50" height="50" relative="1" as="geometry">
            <mxPoint x="806.7199999999993" y="279.2800000000002" as="sourcePoint" />
            <mxPoint x="839.8799999999997" y="279.48" as="targetPoint" />
          </mxGeometry>
        </mxCell>
        <mxCell id="1okZj3iLOT3e2Y5lFoiS-71" value="&lt;b&gt;ALUResult&lt;/b&gt;" style="endArrow=classicThin;html=1;rounded=0;entryX=0;entryY=0.321;entryDx=0;entryDy=0;entryPerimeter=0;exitX=0.972;exitY=0.375;exitDx=0;exitDy=0;exitPerimeter=0;strokeWidth=2;endFill=1;" parent="1" target="t1KUj5Thw46-gsd1N_Hx-75" edge="1">
          <mxGeometry width="50" height="50" relative="1" as="geometry">
            <mxPoint x="869.1599999999999" y="280" as="sourcePoint" />
            <mxPoint x="958.9200000000001" y="279.5799999999999" as="targetPoint" />
            <Array as="points">
              <mxPoint x="900" y="280" />
              <mxPoint x="900" y="248" />
            </Array>
          </mxGeometry>
        </mxCell>
        <mxCell id="1okZj3iLOT3e2Y5lFoiS-101" value="&lt;font color=&quot;#6c8ebf&quot;&gt;&lt;b&gt;pc_sel&lt;/b&gt;&lt;/font&gt;" style="endArrow=classic;html=1;rounded=0;entryX=0;entryY=0.5;entryDx=0;entryDy=0;fillColor=#dae8fc;strokeColor=#6c8ebf;strokeWidth=2;exitX=0.922;exitY=0.151;exitDx=0;exitDy=0;exitPerimeter=0;" parent="1" source="t3lFgOEBOsQBDX6AvOPy-19" target="t1KUj5Thw46-gsd1N_Hx-9" edge="1">
          <mxGeometry x="0.9605" width="50" height="50" relative="1" as="geometry">
            <mxPoint x="-200" y="-190" as="sourcePoint" />
            <mxPoint x="-157.5" y="318.75" as="targetPoint" />
            <Array as="points">
              <mxPoint x="630" y="-90" />
              <mxPoint x="630" y="-160" />
              <mxPoint x="-360" y="-160" />
              <mxPoint x="-360" y="210" />
              <mxPoint x="-299" y="210" />
            </Array>
            <mxPoint as="offset" />
          </mxGeometry>
        </mxCell>
        <mxCell id="1okZj3iLOT3e2Y5lFoiS-114" value="" style="endArrow=openThin;html=1;rounded=0;edgeStyle=orthogonalEdgeStyle;strokeWidth=2;endFill=0;entryX=0.75;entryY=1;entryDx=0;entryDy=0;" parent="1" target="t1KUj5Thw46-gsd1N_Hx-9" edge="1">
          <mxGeometry width="50" height="50" relative="1" as="geometry">
            <mxPoint x="-29" y="560" as="sourcePoint" />
            <mxPoint x="-309" y="300" as="targetPoint" />
            <Array as="points">
              <mxPoint x="-329" y="560" />
              <mxPoint x="-329" y="301" />
            </Array>
          </mxGeometry>
        </mxCell>
        <mxCell id="1okZj3iLOT3e2Y5lFoiS-127" value="&lt;b&gt;AddrB&lt;/b&gt;" style="endArrow=classicThin;html=1;rounded=0;entryX=0.003;entryY=0.842;entryDx=0;entryDy=0;entryPerimeter=0;strokeWidth=1;endFill=1;" parent="1" edge="1">
          <mxGeometry x="0.2007" width="50" height="50" relative="1" as="geometry">
            <mxPoint x="200" y="285" as="sourcePoint" />
            <mxPoint x="499.09000000000015" y="479.4200000000001" as="targetPoint" />
            <Array as="points">
              <mxPoint x="200" y="479" />
            </Array>
            <mxPoint as="offset" />
          </mxGeometry>
        </mxCell>
        <mxCell id="1okZj3iLOT3e2Y5lFoiS-128" value="&lt;b&gt;AddrA&lt;/b&gt;" style="endArrow=classicThin;html=1;rounded=0;entryX=-0.004;entryY=0.881;entryDx=0;entryDy=0;entryPerimeter=0;strokeWidth=1;endFill=1;" parent="1" edge="1">
          <mxGeometry x="0.3024" width="50" height="50" relative="1" as="geometry">
            <mxPoint x="190" y="260" as="sourcePoint" />
            <mxPoint x="498.8799999999999" y="499.30999999999995" as="targetPoint" />
            <Array as="points">
              <mxPoint x="190" y="260" />
              <mxPoint x="190" y="499" />
            </Array>
            <mxPoint as="offset" />
          </mxGeometry>
        </mxCell>
        <mxCell id="t1KUj5Thw46-gsd1N_Hx-1" value="&lt;font style=&quot;font-size: 15px;&quot;&gt;&lt;b&gt;4&lt;/b&gt;&lt;/font&gt;" style="endArrow=classicThin;html=1;rounded=0;strokeWidth=2;endFill=1;entryX=0.627;entryY=1.034;entryDx=0;entryDy=0;entryPerimeter=0;" parent="1" target="1okZj3iLOT3e2Y5lFoiS-4" edge="1">
          <mxGeometry x="-1" y="-10" width="50" height="50" relative="1" as="geometry">
            <mxPoint x="-139" y="520" as="sourcePoint" />
            <mxPoint x="-98.67" y="580" as="targetPoint" />
            <mxPoint x="-10" y="-10" as="offset" />
          </mxGeometry>
        </mxCell>
        <mxCell id="t1KUj5Thw46-gsd1N_Hx-2" value="&lt;b&gt;pc4&lt;/b&gt;" style="endArrow=classicThin;html=1;rounded=0;strokeWidth=2;endFill=1;exitX=0.479;exitY=0.003;exitDx=0;exitDy=0;entryX=0.002;entryY=0.96;entryDx=0;entryDy=0;entryPerimeter=0;exitPerimeter=0;" parent="1" source="1okZj3iLOT3e2Y5lFoiS-4" edge="1">
          <mxGeometry x="-0.5017" y="10" width="50" height="50" relative="1" as="geometry">
            <mxPoint x="-68.67" y="200" as="sourcePoint" />
            <mxPoint x="10.999999999999943" y="559.93" as="targetPoint" />
            <mxPoint as="offset" />
            <Array as="points">
              <mxPoint x="-29" y="510" />
              <mxPoint x="-29" y="560" />
            </Array>
          </mxGeometry>
        </mxCell>
        <mxCell id="t1KUj5Thw46-gsd1N_Hx-9" value="1&lt;span style=&quot;white-space: pre;&quot;&gt;&#x9;&lt;/span&gt;0" style="rounded=1;whiteSpace=wrap;html=1;arcSize=50;rotation=90;fontStyle=1;strokeWidth=2;" parent="1" vertex="1">
          <mxGeometry x="-339" y="268" width="80" height="25" as="geometry" />
        </mxCell>
        <mxCell id="t1KUj5Thw46-gsd1N_Hx-10" value="0&lt;span style=&quot;white-space: pre;&quot;&gt;&#x9;&lt;/span&gt;1&lt;span style=&quot;white-space: pre;&quot;&gt;&#x9;&lt;/span&gt;2" style="rounded=1;whiteSpace=wrap;html=1;arcSize=50;rotation=90;fontStyle=1;strokeWidth=2;" parent="1" vertex="1">
          <mxGeometry x="550" y="193.5" width="100" height="25" as="geometry" />
        </mxCell>
        <mxCell id="t1KUj5Thw46-gsd1N_Hx-12" value="0&lt;span style=&quot;white-space: pre;&quot;&gt;&#x9;&lt;/span&gt;1&lt;span style=&quot;white-space: pre;&quot;&gt;&#x9;&lt;/span&gt;2" style="rounded=1;whiteSpace=wrap;html=1;arcSize=50;rotation=90;fontStyle=1;strokeWidth=2;" parent="1" vertex="1">
          <mxGeometry x="550" y="339" width="100" height="25" as="geometry" />
        </mxCell>
        <mxCell id="t1KUj5Thw46-gsd1N_Hx-22" value="" style="endArrow=classicThin;html=1;rounded=0;entryX=0.058;entryY=0.735;entryDx=0;entryDy=0;entryPerimeter=0;strokeWidth=2;endFill=1;" parent="1" target="t3lFgOEBOsQBDX6AvOPy-1" edge="1">
          <mxGeometry width="50" height="50" relative="1" as="geometry">
            <mxPoint x="71" y="430" as="sourcePoint" />
            <mxPoint x="117.42000000000007" y="38.59999999999991" as="targetPoint" />
            <Array as="points">
              <mxPoint x="71" y="40" />
            </Array>
          </mxGeometry>
        </mxCell>
        <mxCell id="t1KUj5Thw46-gsd1N_Hx-23" value="&lt;b&gt;inst&lt;/b&gt;" style="endArrow=classicThin;html=1;rounded=0;exitX=1;exitY=0.5;exitDx=0;exitDy=0;entryX=-0.033;entryY=0.451;entryDx=0;entryDy=0;entryPerimeter=0;strokeWidth=2;endFill=1;labelBackgroundColor=none;" parent="1" source="t1KUj5Thw46-gsd1N_Hx-140" edge="1">
          <mxGeometry x="0.0252" y="10" width="50" height="50" relative="1" as="geometry">
            <mxPoint x="-19" y="280" as="sourcePoint" />
            <mxPoint x="10.009999999999991" y="280.00999999999976" as="targetPoint" />
            <mxPoint as="offset" />
          </mxGeometry>
        </mxCell>
        <mxCell id="t1KUj5Thw46-gsd1N_Hx-24" value="&lt;b&gt;DataA&lt;/b&gt;" style="endArrow=classicThin;html=1;rounded=0;entryX=0.25;entryY=1;entryDx=0;entryDy=0;exitX=0.999;exitY=0.257;exitDx=0;exitDy=0;exitPerimeter=0;strokeWidth=2;endFill=1;" parent="1" target="t1KUj5Thw46-gsd1N_Hx-10" edge="1">
          <mxGeometry x="0.0608" y="11" width="50" height="50" relative="1" as="geometry">
            <mxPoint x="528.97" y="181.07000000000016" as="sourcePoint" />
            <mxPoint x="560" y="160" as="targetPoint" />
            <mxPoint as="offset" />
          </mxGeometry>
        </mxCell>
        <mxCell id="t1KUj5Thw46-gsd1N_Hx-25" value="pc" style="endArrow=classicThin;html=1;rounded=0;entryX=-0.003;entryY=0.137;entryDx=0;entryDy=0;entryPerimeter=0;strokeWidth=2;endFill=1;" parent="1" edge="1">
          <mxGeometry x="0.455" y="10" width="50" height="50" relative="1" as="geometry">
            <mxPoint x="-159" y="280" as="sourcePoint" />
            <mxPoint x="10.910000000000082" y="119.87000000000012" as="targetPoint" />
            <Array as="points">
              <mxPoint x="-159" y="120" />
            </Array>
            <mxPoint as="offset" />
          </mxGeometry>
        </mxCell>
        <mxCell id="t1KUj5Thw46-gsd1N_Hx-26" value="&lt;b&gt;pc&lt;/b&gt;" style="endArrow=classicThin;html=1;rounded=0;exitX=0.959;exitY=0.079;exitDx=0;exitDy=0;exitPerimeter=0;entryX=-0.003;entryY=0.137;entryDx=0;entryDy=0;entryPerimeter=0;strokeWidth=2;endFill=1;" parent="1" edge="1" source="t1KUj5Thw46-gsd1N_Hx-126">
          <mxGeometry x="0.2813" y="10" width="50" height="50" relative="1" as="geometry">
            <mxPoint x="140.12000000000012" y="119.36000000000013" as="sourcePoint" />
            <mxPoint x="498.90999999999985" y="119.87000000000012" as="targetPoint" />
            <mxPoint as="offset" />
          </mxGeometry>
        </mxCell>
        <mxCell id="t1KUj5Thw46-gsd1N_Hx-27" value="&lt;b&gt;pc&lt;/b&gt;" style="endArrow=classicThin;html=1;rounded=0;exitX=0.998;exitY=0.137;exitDx=0;exitDy=0;exitPerimeter=0;entryX=0.283;entryY=1.002;entryDx=0;entryDy=0;strokeWidth=2;endFill=1;entryPerimeter=0;" parent="1" target="t1KUj5Thw46-gsd1N_Hx-50" edge="1">
          <mxGeometry x="-0.4483" y="10" width="50" height="50" relative="1" as="geometry">
            <mxPoint x="528.94" y="119.87000000000012" as="sourcePoint" />
            <mxPoint x="663.3" y="169.5" as="targetPoint" />
            <Array as="points">
              <mxPoint x="640" y="120" />
              <mxPoint x="640" y="180" />
            </Array>
            <mxPoint as="offset" />
          </mxGeometry>
        </mxCell>
        <mxCell id="t1KUj5Thw46-gsd1N_Hx-28" value="&lt;b&gt;pc4&lt;/b&gt;" style="endArrow=classicThin;html=1;rounded=0;exitX=1.043;exitY=0.96;exitDx=0;exitDy=0;exitPerimeter=0;entryX=-0.007;entryY=0.98;entryDx=0;entryDy=0;entryPerimeter=0;strokeWidth=2;endFill=1;" parent="1" target="t1KUj5Thw46-gsd1N_Hx-78" edge="1" source="t1KUj5Thw46-gsd1N_Hx-126">
          <mxGeometry x="0.0046" width="50" height="50" relative="1" as="geometry">
            <mxPoint x="139.99999999999997" y="559.9999999999999" as="sourcePoint" />
            <mxPoint x="498.3399999999999" y="560.5099999999999" as="targetPoint" />
            <mxPoint as="offset" />
          </mxGeometry>
        </mxCell>
        <mxCell id="t1KUj5Thw46-gsd1N_Hx-29" value="&lt;b&gt;AddrD&lt;/b&gt;" style="endArrow=classicThin;html=1;rounded=0;entryX=-0.02;entryY=0.897;entryDx=0;entryDy=0;entryPerimeter=0;endFill=1;" parent="1" target="t1KUj5Thw46-gsd1N_Hx-78" edge="1">
          <mxGeometry x="-0.0854" width="50" height="50" relative="1" as="geometry">
            <mxPoint x="170" y="520" as="sourcePoint" />
            <mxPoint x="498.00999999999976" y="519.7099999999998" as="targetPoint" />
            <Array as="points">
              <mxPoint x="200" y="520" />
            </Array>
            <mxPoint as="offset" />
          </mxGeometry>
        </mxCell>
        <mxCell id="t1KUj5Thw46-gsd1N_Hx-30" value="" style="endArrow=classicThin;html=1;rounded=0;entryX=0.25;entryY=1;entryDx=0;entryDy=0;exitX=1;exitY=0.542;exitDx=0;exitDy=0;exitPerimeter=0;strokeWidth=2;endFill=1;" parent="1" target="t1KUj5Thw46-gsd1N_Hx-12" edge="1">
          <mxGeometry x="0.0549" y="16" width="50" height="50" relative="1" as="geometry">
            <mxPoint x="529" y="326.4200000000001" as="sourcePoint" />
            <mxPoint x="570" y="310" as="targetPoint" />
            <mxPoint as="offset" />
          </mxGeometry>
        </mxCell>
        <mxCell id="t1KUj5Thw46-gsd1N_Hx-32" value="&lt;b&gt;&lt;font color=&quot;#6c8ebf&quot;&gt;MemRW&lt;/font&gt;&lt;/b&gt;" style="endArrow=classicThin;html=1;rounded=0;exitX=1;exitY=0.5;exitDx=0;exitDy=0;entryX=-0.017;entryY=0.762;entryDx=0;entryDy=0;entryPerimeter=0;fillColor=#dae8fc;strokeColor=#6c8ebf;strokeWidth=2;endFill=1;" parent="1" edge="1">
          <mxGeometry width="50" height="50" relative="1" as="geometry">
            <mxPoint x="314.5" y="10" as="sourcePoint" />
            <mxPoint x="498.49000000000024" y="9.539999999999964" as="targetPoint" />
          </mxGeometry>
        </mxCell>
        <mxCell id="t1KUj5Thw46-gsd1N_Hx-33" value="&lt;b&gt;&lt;font color=&quot;#6c8ebf&quot;&gt;ALUSel&lt;/font&gt;&lt;/b&gt;" style="endArrow=classicThin;html=1;rounded=0;exitX=0.985;exitY=0.399;exitDx=0;exitDy=0;entryX=-0.017;entryY=0.762;entryDx=0;entryDy=0;entryPerimeter=0;exitPerimeter=0;fillColor=#dae8fc;strokeColor=#6c8ebf;strokeWidth=2;endFill=1;" parent="1" edge="1">
          <mxGeometry width="50" height="50" relative="1" as="geometry">
            <mxPoint x="312.70000000000005" y="-10.200000000000045" as="sourcePoint" />
            <mxPoint x="499" y="-10" as="targetPoint" />
          </mxGeometry>
        </mxCell>
        <mxCell id="t1KUj5Thw46-gsd1N_Hx-34" value="&lt;b&gt;&lt;font color=&quot;#6c8ebf&quot;&gt;BSel&lt;/font&gt;&lt;/b&gt;" style="endArrow=classicThin;html=1;rounded=0;exitX=0.957;exitY=0.299;exitDx=0;exitDy=0;entryX=-0.017;entryY=0.762;entryDx=0;entryDy=0;entryPerimeter=0;exitPerimeter=0;fillColor=#dae8fc;strokeColor=#6c8ebf;strokeWidth=2;endFill=1;" parent="1" edge="1">
          <mxGeometry width="50" height="50" relative="1" as="geometry">
            <mxPoint x="309.3399999999999" y="-30.200000000000045" as="sourcePoint" />
            <mxPoint x="499" y="-30" as="targetPoint" />
          </mxGeometry>
        </mxCell>
        <mxCell id="t1KUj5Thw46-gsd1N_Hx-35" value="&lt;b&gt;&lt;font color=&quot;#6c8ebf&quot;&gt;ASel&lt;/font&gt;&lt;/b&gt;" style="endArrow=classicThin;html=1;rounded=0;exitX=0.898;exitY=0.2;exitDx=0;exitDy=0;entryX=-0.017;entryY=0.762;entryDx=0;entryDy=0;entryPerimeter=0;exitPerimeter=0;fillColor=#dae8fc;strokeColor=#6c8ebf;strokeWidth=2;endFill=1;" parent="1" edge="1">
          <mxGeometry width="50" height="50" relative="1" as="geometry">
            <mxPoint x="302.26" y="-50" as="sourcePoint" />
            <mxPoint x="499" y="-50" as="targetPoint" />
          </mxGeometry>
        </mxCell>
        <mxCell id="t1KUj5Thw46-gsd1N_Hx-36" value="&lt;b&gt;&lt;font color=&quot;#6c8ebf&quot;&gt;WBSel&lt;/font&gt;&lt;/b&gt;" style="endArrow=classicThin;html=1;rounded=0;exitX=0.992;exitY=0.599;exitDx=0;exitDy=0;entryX=-0.017;entryY=0.762;entryDx=0;entryDy=0;entryPerimeter=0;exitPerimeter=0;fillColor=#dae8fc;strokeColor=#6c8ebf;strokeWidth=2;endFill=1;" parent="1" edge="1">
          <mxGeometry width="50" height="50" relative="1" as="geometry">
            <mxPoint x="313.53999999999996" y="29.799999999999955" as="sourcePoint" />
            <mxPoint x="499" y="30" as="targetPoint" />
          </mxGeometry>
        </mxCell>
        <mxCell id="t1KUj5Thw46-gsd1N_Hx-37" value="&lt;b style=&quot;&quot;&gt;&lt;font color=&quot;#6c8ebf&quot;&gt;RegWEn&lt;/font&gt;&lt;/b&gt;" style="endArrow=classicThin;html=1;rounded=0;exitX=0.796;exitY=0.099;exitDx=0;exitDy=0;entryX=-0.017;entryY=0.762;entryDx=0;entryDy=0;entryPerimeter=0;exitPerimeter=0;fillColor=#dae8fc;strokeColor=#6c8ebf;strokeWidth=2;endFill=1;" parent="1" edge="1">
          <mxGeometry width="50" height="50" relative="1" as="geometry">
            <mxPoint x="290.02" y="-70.20000000000005" as="sourcePoint" />
            <mxPoint x="499" y="-70" as="targetPoint" />
          </mxGeometry>
        </mxCell>
        <mxCell id="t1KUj5Thw46-gsd1N_Hx-38" value="&lt;b&gt;&lt;font color=&quot;#6c8ebf&quot;&gt;BrUn&lt;/font&gt;&lt;/b&gt;" style="endArrow=classicThin;html=1;rounded=0;exitX=0.96;exitY=0.697;exitDx=0;exitDy=0;exitPerimeter=0;fillColor=#dae8fc;strokeColor=#6c8ebf;strokeWidth=2;endFill=1;entryX=0;entryY=0.5;entryDx=0;entryDy=0;" parent="1" target="t1KUj5Thw46-gsd1N_Hx-14" edge="1">
          <mxGeometry x="-0.5233" width="50" height="50" relative="1" as="geometry">
            <mxPoint x="309.70000000000005" y="49.40000000000009" as="sourcePoint" />
            <mxPoint x="440" y="170" as="targetPoint" />
            <Array as="points">
              <mxPoint x="430" y="50" />
            </Array>
            <mxPoint as="offset" />
          </mxGeometry>
        </mxCell>
        <mxCell id="t1KUj5Thw46-gsd1N_Hx-43" value="&lt;b&gt;funct3&lt;/b&gt;" style="endArrow=classicThin;html=1;rounded=0;entryX=-0.012;entryY=0.885;entryDx=0;entryDy=0;entryPerimeter=0;endFill=1;" parent="1" edge="1">
          <mxGeometry x="-0.0899" width="50" height="50" relative="1" as="geometry">
            <mxPoint x="170" y="540" as="sourcePoint" />
            <mxPoint x="499.6400000000003" y="540.1999999999998" as="targetPoint" />
            <mxPoint as="offset" />
          </mxGeometry>
        </mxCell>
        <mxCell id="t1KUj5Thw46-gsd1N_Hx-44" value="&lt;b&gt;&lt;font color=&quot;#6c8ebf&quot;&gt;RegWEn&lt;/font&gt;&lt;/b&gt;" style="endArrow=classicThin;html=1;rounded=0;exitX=0.796;exitY=0.099;exitDx=0;exitDy=0;entryX=0;entryY=0.086;entryDx=0;entryDy=0;entryPerimeter=0;exitPerimeter=0;fillColor=#dae8fc;strokeColor=#6c8ebf;strokeWidth=2;endFill=1;" parent="1" edge="1">
          <mxGeometry x="0.6774" width="50" height="50" relative="1" as="geometry">
            <mxPoint x="530" y="-70" as="sourcePoint" />
            <mxPoint x="840" y="-70.37999999999988" as="targetPoint" />
            <mxPoint as="offset" />
          </mxGeometry>
        </mxCell>
        <mxCell id="t1KUj5Thw46-gsd1N_Hx-45" value="&lt;b&gt;&lt;font color=&quot;#6c8ebf&quot;&gt;ASel&lt;/font&gt;&lt;/b&gt;" style="endArrow=classicThin;html=1;rounded=0;exitX=0.898;exitY=0.2;exitDx=0;exitDy=0;entryX=0;entryY=0.5;entryDx=0;entryDy=0;exitPerimeter=0;fillColor=#dae8fc;strokeColor=#6c8ebf;strokeWidth=2;endFill=1;edgeStyle=orthogonalEdgeStyle;" parent="1" target="t1KUj5Thw46-gsd1N_Hx-50" edge="1">
          <mxGeometry x="0.8361" width="50" height="50" relative="1" as="geometry">
            <mxPoint x="529" y="-50" as="sourcePoint" />
            <mxPoint x="681.0000000000002" y="162.5" as="targetPoint" />
            <mxPoint as="offset" />
          </mxGeometry>
        </mxCell>
        <mxCell id="t1KUj5Thw46-gsd1N_Hx-48" value="&lt;b&gt;&lt;font color=&quot;#6c8ebf&quot;&gt;BSel&lt;/font&gt;&lt;/b&gt;" style="endArrow=classicThin;html=1;rounded=0;exitX=0.957;exitY=0.299;exitDx=0;exitDy=0;exitPerimeter=0;fillColor=#dae8fc;strokeColor=#6c8ebf;strokeWidth=2;endFill=1;entryX=0;entryY=0.5;entryDx=0;entryDy=0;" parent="1" target="t1KUj5Thw46-gsd1N_Hx-51" edge="1">
          <mxGeometry x="0.6979" y="10" width="50" height="50" relative="1" as="geometry">
            <mxPoint x="530" y="-30" as="sourcePoint" />
            <mxPoint x="680" y="320" as="targetPoint" />
            <Array as="points">
              <mxPoint x="630" y="-30" />
              <mxPoint x="630" y="280" />
              <mxPoint x="680" y="280" />
            </Array>
            <mxPoint as="offset" />
          </mxGeometry>
        </mxCell>
        <mxCell id="t1KUj5Thw46-gsd1N_Hx-50" value="1&lt;span style=&quot;white-space: pre;&quot;&gt;&#x9;&lt;/span&gt;0" style="rounded=1;whiteSpace=wrap;html=1;arcSize=50;rotation=90;fontStyle=1;strokeWidth=2;" parent="1" vertex="1">
          <mxGeometry x="644" y="183" width="72" height="25" as="geometry" />
        </mxCell>
        <mxCell id="t1KUj5Thw46-gsd1N_Hx-51" value="0&lt;span style=&quot;white-space: pre;&quot;&gt;&#x9;&lt;/span&gt;1" style="rounded=1;whiteSpace=wrap;html=1;arcSize=50;rotation=90;fontStyle=1;strokeWidth=2;" parent="1" vertex="1">
          <mxGeometry x="644" y="350" width="72" height="25" as="geometry" />
        </mxCell>
        <mxCell id="t1KUj5Thw46-gsd1N_Hx-52" value="&lt;b&gt;Imm&lt;/b&gt;" style="endArrow=classicThin;html=1;rounded=0;exitX=0.5;exitY=0;exitDx=0;exitDy=0;entryX=-0.031;entryY=0.675;entryDx=0;entryDy=0;entryPerimeter=0;strokeWidth=2;endFill=1;" parent="1" source="1okZj3iLOT3e2Y5lFoiS-7" edge="1">
          <mxGeometry x="0.5643" y="1" width="50" height="50" relative="1" as="geometry">
            <mxPoint x="430" y="490" as="sourcePoint" />
            <mxPoint x="499.07000000000016" y="431" as="targetPoint" />
            <mxPoint as="offset" />
          </mxGeometry>
        </mxCell>
        <mxCell id="t1KUj5Thw46-gsd1N_Hx-66" value="&lt;b style=&quot;font-size: 22px;&quot;&gt;&lt;font style=&quot;font-size: 22px;&quot;&gt;ALU&lt;/font&gt;&lt;/b&gt;" style="text;html=1;align=center;verticalAlign=middle;whiteSpace=wrap;rounded=0;fontSize=22;" parent="1" vertex="1">
          <mxGeometry x="750" y="265" width="60" height="30" as="geometry" />
        </mxCell>
        <mxCell id="t1KUj5Thw46-gsd1N_Hx-67" value="" style="endArrow=classicThin;html=1;rounded=0;exitX=0.5;exitY=0;exitDx=0;exitDy=0;entryX=0.25;entryY=1;entryDx=0;entryDy=0;edgeStyle=orthogonalEdgeStyle;strokeWidth=2;endFill=1;" parent="1" source="t1KUj5Thw46-gsd1N_Hx-50" target="LwmswJ-lS-nHnzN2LPLg-1" edge="1">
          <mxGeometry width="50" height="50" relative="1" as="geometry">
            <mxPoint x="760" y="260" as="sourcePoint" />
            <mxPoint x="736.8599999999997" y="258.9999999999998" as="targetPoint" />
            <Array as="points">
              <mxPoint x="720" y="196" />
              <mxPoint x="720" y="250" />
            </Array>
          </mxGeometry>
        </mxCell>
        <mxCell id="t1KUj5Thw46-gsd1N_Hx-68" value="" style="endArrow=classicThin;html=1;rounded=0;exitX=0.5;exitY=0;exitDx=0;exitDy=0;entryX=0.75;entryY=1;entryDx=0;entryDy=0;edgeStyle=orthogonalEdgeStyle;strokeWidth=2;endFill=1;" parent="1" source="t1KUj5Thw46-gsd1N_Hx-51" target="LwmswJ-lS-nHnzN2LPLg-1" edge="1">
          <mxGeometry width="50" height="50" relative="1" as="geometry">
            <mxPoint x="820" y="360" as="sourcePoint" />
            <mxPoint x="736.5100000000002" y="297.7600000000002" as="targetPoint" />
            <Array as="points">
              <mxPoint x="720" y="363" />
              <mxPoint x="720" y="310" />
            </Array>
          </mxGeometry>
        </mxCell>
        <mxCell id="t1KUj5Thw46-gsd1N_Hx-69" value="&lt;b&gt;&lt;font color=&quot;#6c8ebf&quot;&gt;ALUSel&lt;/font&gt;&lt;/b&gt;" style="endArrow=classicThin;html=1;rounded=0;exitX=0.985;exitY=0.399;exitDx=0;exitDy=0;entryX=1;entryY=0.5;entryDx=0;entryDy=0;exitPerimeter=0;fillColor=#dae8fc;strokeColor=#6c8ebf;strokeWidth=2;endFill=1;" parent="1" edge="1">
          <mxGeometry x="0.8323" width="50" height="50" relative="1" as="geometry">
            <mxPoint x="530" y="-10" as="sourcePoint" />
            <mxPoint x="772" y="230" as="targetPoint" />
            <Array as="points">
              <mxPoint x="772" y="-10" />
            </Array>
            <mxPoint as="offset" />
          </mxGeometry>
        </mxCell>
        <mxCell id="t1KUj5Thw46-gsd1N_Hx-72" value="&lt;b&gt;&lt;font color=&quot;#6c8ebf&quot;&gt;MemRW&lt;/font&gt;&lt;/b&gt;" style="endArrow=classicThin;html=1;rounded=0;exitX=1;exitY=0.5;exitDx=0;exitDy=0;entryX=0;entryY=0.559;entryDx=0;entryDy=0;entryPerimeter=0;fillColor=#dae8fc;strokeColor=#6c8ebf;strokeWidth=2;endFill=1;" parent="1" edge="1">
          <mxGeometry x="0.7419" width="50" height="50" relative="1" as="geometry">
            <mxPoint x="530" y="10.12" as="sourcePoint" />
            <mxPoint x="840" y="10.029999999999973" as="targetPoint" />
            <mxPoint as="offset" />
          </mxGeometry>
        </mxCell>
        <mxCell id="t1KUj5Thw46-gsd1N_Hx-73" value="&lt;b&gt;&lt;font color=&quot;#6c8ebf&quot;&gt;WBSel&lt;/font&gt;&lt;/b&gt;" style="endArrow=classicThin;html=1;rounded=0;exitX=0.992;exitY=0.599;exitDx=0;exitDy=0;entryX=-0.023;entryY=0.672;entryDx=0;entryDy=0;entryPerimeter=0;exitPerimeter=0;fillColor=#dae8fc;strokeColor=#6c8ebf;strokeWidth=2;endFill=1;" parent="1" edge="1">
          <mxGeometry x="0.7533" y="-1" width="50" height="50" relative="1" as="geometry">
            <mxPoint x="530" y="30" as="sourcePoint" />
            <mxPoint x="839.31" y="29.24000000000001" as="targetPoint" />
            <mxPoint as="offset" />
          </mxGeometry>
        </mxCell>
        <mxCell id="t1KUj5Thw46-gsd1N_Hx-77" value="&lt;b&gt;ALU&lt;/b&gt;" style="endArrow=classicThin;html=1;rounded=0;entryX=0.5;entryY=1;entryDx=0;entryDy=0;strokeWidth=2;endFill=1;strokeColor=default;" parent="1" target="t1KUj5Thw46-gsd1N_Hx-10" edge="1">
          <mxGeometry x="0.9491" width="50" height="50" relative="1" as="geometry">
            <mxPoint x="900" y="280" as="sourcePoint" />
            <mxPoint x="560" y="230" as="targetPoint" />
            <Array as="points">
              <mxPoint x="900" y="580" />
              <mxPoint x="540" y="580" />
              <mxPoint x="540" y="206" />
            </Array>
            <mxPoint as="offset" />
          </mxGeometry>
        </mxCell>
        <mxCell id="t1KUj5Thw46-gsd1N_Hx-78" value="" style="rounded=0;whiteSpace=wrap;html=1;fillColor=#dae8fc;strokeColor=#6c8ebf;strokeWidth=2;" parent="1" vertex="1">
          <mxGeometry x="500" y="80" width="30" height="490" as="geometry" />
        </mxCell>
        <mxCell id="t1KUj5Thw46-gsd1N_Hx-80" value="" style="endArrow=classicThin;html=1;rounded=0;entryX=0.484;entryY=1.005;entryDx=0;entryDy=0;entryPerimeter=0;strokeWidth=2;endFill=1;" parent="1" target="t1KUj5Thw46-gsd1N_Hx-12" edge="1">
          <mxGeometry width="50" height="50" relative="1" as="geometry">
            <mxPoint x="540" y="350" as="sourcePoint" />
            <mxPoint x="560" y="300" as="targetPoint" />
            <Array as="points">
              <mxPoint x="560" y="350" />
            </Array>
          </mxGeometry>
        </mxCell>
        <mxCell id="t1KUj5Thw46-gsd1N_Hx-75" value="&lt;div&gt;&lt;br&gt;&lt;/div&gt;&lt;div&gt;&lt;br&gt;&lt;/div&gt;Addr&lt;div&gt;&lt;span style=&quot;white-space: pre;&quot;&gt;&#x9;&lt;/span&gt;&lt;span style=&quot;white-space: pre;&quot;&gt;&#x9;&lt;/span&gt;&lt;span style=&quot;white-space: pre;&quot;&gt;&#x9;&lt;/span&gt;&lt;span style=&quot;background-color: initial;&quot;&gt;DataR&lt;/span&gt;&lt;br&gt;&lt;/div&gt;&lt;div&gt;&lt;span style=&quot;white-space: pre;&quot;&gt;&#x9;&lt;/span&gt;&lt;span style=&quot;white-space: pre;&quot;&gt;&#x9;&lt;/span&gt;&lt;span style=&quot;white-space: pre;&quot;&gt;&#x9;&lt;/span&gt;&lt;br&gt;&lt;/div&gt;&lt;div&gt;&lt;br&gt;&lt;/div&gt;&lt;div&gt;&lt;br&gt;&lt;/div&gt;&lt;div&gt;DataW&lt;/div&gt;&lt;div&gt;&lt;br&gt;&lt;/div&gt;&lt;div&gt;funct3&lt;/div&gt;" style="rounded=0;whiteSpace=wrap;html=1;align=left;fontStyle=1;strokeWidth=2;" parent="1" vertex="1">
          <mxGeometry x="930" y="190" width="120" height="180" as="geometry" />
        </mxCell>
        <mxCell id="158_ImYmuGgJHrP5fA5R-3" value="&lt;b&gt;&lt;font style=&quot;font-size: 23px;&quot;&gt;DMEM&lt;/font&gt;&lt;/b&gt;" style="text;html=1;align=center;verticalAlign=middle;whiteSpace=wrap;rounded=0;" parent="1" vertex="1">
          <mxGeometry x="960" y="195" width="60" height="30" as="geometry" />
        </mxCell>
        <mxCell id="t1KUj5Thw46-gsd1N_Hx-82" value="&lt;b&gt;funct3&lt;/b&gt;" style="endArrow=classicThin;html=1;rounded=0;exitX=1.003;exitY=0.938;exitDx=0;exitDy=0;exitPerimeter=0;entryX=0.005;entryY=0.938;entryDx=0;entryDy=0;entryPerimeter=0;endFill=1;" parent="1" source="t1KUj5Thw46-gsd1N_Hx-78" target="t1KUj5Thw46-gsd1N_Hx-79" edge="1">
          <mxGeometry width="50" height="50" relative="1" as="geometry">
            <mxPoint x="610" y="540" as="sourcePoint" />
            <mxPoint x="660" y="490" as="targetPoint" />
          </mxGeometry>
        </mxCell>
        <mxCell id="t1KUj5Thw46-gsd1N_Hx-83" value="" style="endArrow=classicThin;html=1;rounded=0;entryX=-0.003;entryY=0.85;entryDx=0;entryDy=0;entryPerimeter=0;exitX=0.99;exitY=0.938;exitDx=0;exitDy=0;exitPerimeter=0;strokeWidth=1;endFill=1;" parent="1" source="t1KUj5Thw46-gsd1N_Hx-79" target="t1KUj5Thw46-gsd1N_Hx-75" edge="1">
          <mxGeometry width="50" height="50" relative="1" as="geometry">
            <mxPoint x="860" y="440" as="sourcePoint" />
            <mxPoint x="910" y="390" as="targetPoint" />
            <Array as="points">
              <mxPoint x="890" y="540" />
              <mxPoint x="890" y="343" />
            </Array>
          </mxGeometry>
        </mxCell>
        <mxCell id="t1KUj5Thw46-gsd1N_Hx-84" value="&lt;b&gt;&lt;font color=&quot;#6c8ebf&quot;&gt;MemRW&lt;/font&gt;&lt;/b&gt;" style="endArrow=classicThin;html=1;rounded=0;exitX=1;exitY=0.5;exitDx=0;exitDy=0;entryX=0.5;entryY=0;entryDx=0;entryDy=0;fillColor=#dae8fc;strokeColor=#6c8ebf;strokeWidth=2;endFill=1;" parent="1" target="t1KUj5Thw46-gsd1N_Hx-75" edge="1">
          <mxGeometry x="0.7419" width="50" height="50" relative="1" as="geometry">
            <mxPoint x="870" y="9.759999999999998" as="sourcePoint" />
            <mxPoint x="1180" y="9.64" as="targetPoint" />
            <mxPoint as="offset" />
            <Array as="points">
              <mxPoint x="990" y="10" />
            </Array>
          </mxGeometry>
        </mxCell>
        <mxCell id="t1KUj5Thw46-gsd1N_Hx-86" value="" style="rounded=0;whiteSpace=wrap;html=1;fillColor=#dae8fc;strokeColor=#6c8ebf;strokeWidth=2;" parent="1" vertex="1">
          <mxGeometry x="1120" y="-85" width="30" height="170" as="geometry" />
        </mxCell>
        <mxCell id="t1KUj5Thw46-gsd1N_Hx-87" value="" style="rounded=0;whiteSpace=wrap;html=1;fillColor=#dae8fc;strokeColor=#6c8ebf;strokeWidth=2;" parent="1" vertex="1">
          <mxGeometry x="1120" y="85" width="30" height="485" as="geometry" />
        </mxCell>
        <mxCell id="t1KUj5Thw46-gsd1N_Hx-88" value="&lt;b&gt;&lt;font color=&quot;#6c8ebf&quot;&gt;WBSel&lt;/font&gt;&lt;/b&gt;" style="endArrow=classicThin;html=1;rounded=0;exitX=0.992;exitY=0.599;exitDx=0;exitDy=0;exitPerimeter=0;fillColor=#dae8fc;strokeColor=#6c8ebf;strokeWidth=2;endFill=1;entryX=-0.002;entryY=0.681;entryDx=0;entryDy=0;entryPerimeter=0;" parent="1" target="t1KUj5Thw46-gsd1N_Hx-86" edge="1">
          <mxGeometry x="0.2003" width="50" height="50" relative="1" as="geometry">
            <mxPoint x="870" y="31" as="sourcePoint" />
            <mxPoint x="1120" y="30" as="targetPoint" />
            <mxPoint as="offset" />
          </mxGeometry>
        </mxCell>
        <mxCell id="t1KUj5Thw46-gsd1N_Hx-90" value="&lt;b&gt;&lt;font color=&quot;#6c8ebf&quot;&gt;RegWEn&lt;/font&gt;&lt;/b&gt;" style="endArrow=classicThin;html=1;rounded=0;entryX=0.5;entryY=0;entryDx=0;entryDy=0;fillColor=#dae8fc;strokeColor=#6c8ebf;strokeWidth=2;endFill=1;" parent="1" target="t3lFgOEBOsQBDX6AvOPy-37" edge="1">
          <mxGeometry x="0.9027" y="-10" width="50" height="50" relative="1" as="geometry">
            <mxPoint x="1150" y="-70" as="sourcePoint" />
            <mxPoint x="294" y="190" as="targetPoint" />
            <mxPoint as="offset" />
            <Array as="points">
              <mxPoint x="1240" y="-70" />
              <mxPoint x="1240" y="-140" />
              <mxPoint x="340" y="-140" />
              <mxPoint x="340" y="140" />
              <mxPoint x="215" y="140" />
            </Array>
          </mxGeometry>
        </mxCell>
        <mxCell id="t1KUj5Thw46-gsd1N_Hx-91" value="&lt;b&gt;&lt;font color=&quot;#6c8ebf&quot;&gt;RegWEn&lt;/font&gt;&lt;/b&gt;" style="endArrow=classicThin;html=1;rounded=0;exitX=0.796;exitY=0.099;exitDx=0;exitDy=0;exitPerimeter=0;fillColor=#dae8fc;strokeColor=#6c8ebf;strokeWidth=2;endFill=1;" parent="1" edge="1">
          <mxGeometry x="0.2" width="50" height="50" relative="1" as="geometry">
            <mxPoint x="870" y="-70" as="sourcePoint" />
            <mxPoint x="1120" y="-70" as="targetPoint" />
            <mxPoint as="offset" />
          </mxGeometry>
        </mxCell>
        <mxCell id="t1KUj5Thw46-gsd1N_Hx-93" value="" style="rounded=1;whiteSpace=wrap;html=1;fillColor=#c73500;strokeColor=none;strokeWidth=1;align=left;fontColor=#000000;" parent="1" vertex="1">
          <mxGeometry x="310" y="680" width="530" height="50" as="geometry" />
        </mxCell>
        <mxCell id="t1KUj5Thw46-gsd1N_Hx-96" value="&lt;b&gt;AddrD&lt;/b&gt;" style="endArrow=classicThin;html=1;rounded=0;exitX=1;exitY=0.898;exitDx=0;exitDy=0;exitPerimeter=0;entryX=-0.016;entryY=0.897;entryDx=0;entryDy=0;entryPerimeter=0;endFill=1;" parent="1" source="t1KUj5Thw46-gsd1N_Hx-78" target="t1KUj5Thw46-gsd1N_Hx-79" edge="1">
          <mxGeometry width="50" height="50" relative="1" as="geometry">
            <mxPoint x="540" y="510" as="sourcePoint" />
            <mxPoint x="590" y="460" as="targetPoint" />
          </mxGeometry>
        </mxCell>
        <mxCell id="t1KUj5Thw46-gsd1N_Hx-97" value="&lt;b&gt;AddrD&lt;/b&gt;" style="endArrow=classic;html=1;rounded=0;exitX=1;exitY=0.898;exitDx=0;exitDy=0;exitPerimeter=0;" parent="1" edge="1">
          <mxGeometry width="50" height="50" relative="1" as="geometry">
            <mxPoint x="870" y="520" as="sourcePoint" />
            <mxPoint x="1120" y="520" as="targetPoint" />
          </mxGeometry>
        </mxCell>
        <mxCell id="t1KUj5Thw46-gsd1N_Hx-98" value="&lt;b&gt;pcPlus4&lt;/b&gt;" style="endArrow=classicThin;html=1;rounded=0;entryX=-0.013;entryY=0.979;entryDx=0;entryDy=0;entryPerimeter=0;strokeWidth=2;endFill=1;" parent="1" target="t1KUj5Thw46-gsd1N_Hx-79" edge="1">
          <mxGeometry width="50" height="50" relative="1" as="geometry">
            <mxPoint x="530" y="560" as="sourcePoint" />
            <mxPoint x="888.3399999999999" y="561.5499999999998" as="targetPoint" />
          </mxGeometry>
        </mxCell>
        <mxCell id="t1KUj5Thw46-gsd1N_Hx-99" value="&lt;b&gt;pcPlus4&lt;/b&gt;" style="endArrow=classicThin;html=1;rounded=0;exitX=0.998;exitY=0.979;exitDx=0;exitDy=0;exitPerimeter=0;strokeWidth=2;endFill=1;" parent="1" source="t1KUj5Thw46-gsd1N_Hx-79" edge="1">
          <mxGeometry width="50" height="50" relative="1" as="geometry">
            <mxPoint x="870" y="561.0699999999999" as="sourcePoint" />
            <mxPoint x="1120" y="560" as="targetPoint" />
          </mxGeometry>
        </mxCell>
        <mxCell id="t1KUj5Thw46-gsd1N_Hx-100" value="&lt;b&gt;&lt;font color=&quot;#c73500&quot;&gt;fwdSelA&lt;/font&gt;&lt;/b&gt;" style="endArrow=classicThin;html=1;rounded=0;entryX=1;entryY=0.5;entryDx=0;entryDy=0;fillColor=#fa6800;strokeColor=#C73500;endFill=1;strokeWidth=2;" parent="1" target="t1KUj5Thw46-gsd1N_Hx-10" edge="1">
          <mxGeometry x="-0.5131" width="50" height="50" relative="1" as="geometry">
            <mxPoint x="630" y="600" as="sourcePoint" />
            <mxPoint x="770" y="500" as="targetPoint" />
            <Array as="points">
              <mxPoint x="630" y="680" />
              <mxPoint x="630" y="600" />
              <mxPoint x="630" y="290" />
              <mxPoint x="600" y="290" />
            </Array>
            <mxPoint as="offset" />
          </mxGeometry>
        </mxCell>
        <mxCell id="t1KUj5Thw46-gsd1N_Hx-101" value="&lt;b&gt;&lt;font color=&quot;#c73500&quot;&gt;fwdSelB&lt;/font&gt;&lt;/b&gt;" style="endArrow=classicThin;html=1;rounded=0;entryX=1;entryY=0.5;entryDx=0;entryDy=0;fillColor=#fa6800;strokeColor=#C73500;endFill=1;strokeWidth=2;" parent="1" target="t1KUj5Thw46-gsd1N_Hx-12" edge="1">
          <mxGeometry x="-0.3863" width="50" height="50" relative="1" as="geometry">
            <mxPoint x="600" y="600" as="sourcePoint" />
            <mxPoint x="600" y="530" as="targetPoint" />
            <Array as="points">
              <mxPoint x="600" y="680" />
              <mxPoint x="600" y="600" />
            </Array>
            <mxPoint as="offset" />
          </mxGeometry>
        </mxCell>
        <mxCell id="t1KUj5Thw46-gsd1N_Hx-102" value="&lt;font style=&quot;font-size: 18px;&quot;&gt;&lt;b style=&quot;&quot;&gt;&lt;font style=&quot;font-size: 18px;&quot;&gt;Forwarding&amp;nbsp;&lt;/font&gt;&lt;/b&gt;&lt;b style=&quot;background-color: initial;&quot;&gt;Unit&lt;/b&gt;&lt;/font&gt;" style="text;html=1;align=center;verticalAlign=middle;whiteSpace=wrap;rounded=0;" parent="1" vertex="1">
          <mxGeometry x="508.5" y="695" width="133" height="20" as="geometry" />
        </mxCell>
        <mxCell id="t1KUj5Thw46-gsd1N_Hx-105" value="&lt;font size=&quot;1&quot; color=&quot;#c73500&quot; style=&quot;&quot;&gt;&lt;b style=&quot;font-size: 9px;&quot;&gt;RS1_EX&lt;/b&gt;&lt;/font&gt;" style="endArrow=classicThin;html=1;rounded=0;exitX=1.016;exitY=0.855;exitDx=0;exitDy=0;exitPerimeter=0;entryX=0.453;entryY=0;entryDx=0;entryDy=0;entryPerimeter=0;fillColor=#fa6800;strokeColor=#C73500;strokeWidth=2;endFill=1;" parent="1" source="t1KUj5Thw46-gsd1N_Hx-78" target="t1KUj5Thw46-gsd1N_Hx-93" edge="1">
          <mxGeometry x="0.7508" width="50" height="50" relative="1" as="geometry">
            <mxPoint x="500" y="510" as="sourcePoint" />
            <mxPoint x="530" y="650" as="targetPoint" />
            <Array as="points">
              <mxPoint x="550" y="499" />
            </Array>
            <mxPoint as="offset" />
          </mxGeometry>
        </mxCell>
        <mxCell id="t1KUj5Thw46-gsd1N_Hx-106" value="&lt;font size=&quot;1&quot; color=&quot;#c73500&quot; style=&quot;&quot;&gt;&lt;b style=&quot;font-size: 9px;&quot;&gt;RS2_EX&lt;/b&gt;&lt;/font&gt;" style="endArrow=classicThin;html=1;rounded=0;exitX=1.016;exitY=0.855;exitDx=0;exitDy=0;exitPerimeter=0;entryX=0.491;entryY=0;entryDx=0;entryDy=0;entryPerimeter=0;fillColor=#fa6800;strokeColor=#C73500;strokeWidth=2;endFill=1;" parent="1" target="t1KUj5Thw46-gsd1N_Hx-93" edge="1">
          <mxGeometry x="0.5833" width="50" height="50" relative="1" as="geometry">
            <mxPoint x="530" y="480" as="sourcePoint" />
            <mxPoint x="550" y="621" as="targetPoint" />
            <Array as="points">
              <mxPoint x="570" y="480" />
            </Array>
            <mxPoint as="offset" />
          </mxGeometry>
        </mxCell>
        <mxCell id="t1KUj5Thw46-gsd1N_Hx-107" value="&lt;b&gt;&lt;font color=&quot;#c73500&quot;&gt;RD_MA&lt;/font&gt;&lt;/b&gt;" style="endArrow=classicThin;html=1;rounded=0;fillColor=#fa6800;strokeColor=#C73500;endFill=1;strokeWidth=2;" parent="1" edge="1">
          <mxGeometry x="0.8441" y="-1" width="50" height="50" relative="1" as="geometry">
            <mxPoint x="920" y="520" as="sourcePoint" />
            <mxPoint x="690" y="680" as="targetPoint" />
            <Array as="points">
              <mxPoint x="920" y="620" />
              <mxPoint x="690" y="620" />
            </Array>
            <mxPoint as="offset" />
          </mxGeometry>
        </mxCell>
        <mxCell id="t1KUj5Thw46-gsd1N_Hx-108" value="&lt;b&gt;AddrD&lt;/b&gt;" style="endArrow=classic;html=1;rounded=0;exitX=1;exitY=0.898;exitDx=0;exitDy=0;exitPerimeter=0;entryX=0;entryY=0.5;entryDx=0;entryDy=0;" parent="1" target="t3lFgOEBOsQBDX6AvOPy-39" edge="1">
          <mxGeometry x="-0.8826" width="50" height="50" relative="1" as="geometry">
            <mxPoint x="1150" y="520" as="sourcePoint" />
            <mxPoint x="233.51999999999998" y="269.9200000000001" as="targetPoint" />
            <Array as="points">
              <mxPoint x="1220" y="520" />
              <mxPoint x="1220" y="590" />
              <mxPoint x="180" y="590" />
              <mxPoint x="180" y="240" />
            </Array>
            <mxPoint as="offset" />
          </mxGeometry>
        </mxCell>
        <mxCell id="t1KUj5Thw46-gsd1N_Hx-109" value="&lt;b&gt;&lt;font color=&quot;#c73500&quot;&gt;RD_WB&lt;/font&gt;&lt;/b&gt;" style="endArrow=classicThin;html=1;rounded=0;entryX=0.83;entryY=-0.001;entryDx=0;entryDy=0;entryPerimeter=0;fillColor=#fa6800;strokeColor=#C73500;endFill=1;strokeWidth=2;" parent="1" target="t1KUj5Thw46-gsd1N_Hx-93" edge="1">
          <mxGeometry x="0.887" width="50" height="50" relative="1" as="geometry">
            <mxPoint x="1220" y="590" as="sourcePoint" />
            <mxPoint x="990" y="640" as="targetPoint" />
            <Array as="points">
              <mxPoint x="1220" y="590" />
              <mxPoint x="1220" y="630" />
              <mxPoint x="750" y="630" />
            </Array>
            <mxPoint as="offset" />
          </mxGeometry>
        </mxCell>
        <mxCell id="t1KUj5Thw46-gsd1N_Hx-111" value="&lt;b&gt;&lt;font color=&quot;#6c8ebf&quot;&gt;WBSel&lt;/font&gt;&lt;/b&gt;" style="endArrow=classicThin;html=1;rounded=0;exitX=1;exitY=0.669;exitDx=0;exitDy=0;exitPerimeter=0;fillColor=#dae8fc;strokeColor=#6c8ebf;strokeWidth=2;endFill=1;entryX=0;entryY=0.5;entryDx=0;entryDy=0;" parent="1" source="t1KUj5Thw46-gsd1N_Hx-86" target="t1KUj5Thw46-gsd1N_Hx-110" edge="1">
          <mxGeometry x="0.7533" y="-1" width="50" height="50" relative="1" as="geometry">
            <mxPoint x="1000" y="130" as="sourcePoint" />
            <mxPoint x="1250" y="130" as="targetPoint" />
            <mxPoint as="offset" />
            <Array as="points">
              <mxPoint x="1240" y="29" />
            </Array>
          </mxGeometry>
        </mxCell>
        <mxCell id="t1KUj5Thw46-gsd1N_Hx-110" value="0&lt;span style=&quot;white-space: pre;&quot;&gt;&#x9;&lt;/span&gt;1&lt;span style=&quot;white-space: pre;&quot;&gt;&#x9;&lt;/span&gt;2" style="rounded=1;whiteSpace=wrap;html=1;arcSize=50;rotation=90;fontStyle=1;strokeWidth=2;" parent="1" vertex="1">
          <mxGeometry x="1190" y="265" width="100" height="25" as="geometry" />
        </mxCell>
        <mxCell id="t1KUj5Thw46-gsd1N_Hx-112" value="" style="endArrow=classicThin;html=1;rounded=0;exitX=1.002;exitY=0.333;exitDx=0;exitDy=0;exitPerimeter=0;entryX=-0.028;entryY=0.34;entryDx=0;entryDy=0;entryPerimeter=0;strokeWidth=2;endFill=1;" parent="1" source="t1KUj5Thw46-gsd1N_Hx-75" target="t1KUj5Thw46-gsd1N_Hx-87" edge="1">
          <mxGeometry width="50" height="50" relative="1" as="geometry">
            <mxPoint x="1030" y="310" as="sourcePoint" />
            <mxPoint x="1080" y="260" as="targetPoint" />
            <Array as="points">
              <mxPoint x="1080" y="250" />
            </Array>
          </mxGeometry>
        </mxCell>
        <mxCell id="t1KUj5Thw46-gsd1N_Hx-113" value="&lt;b&gt;DataR&lt;/b&gt;" style="endArrow=classicThin;html=1;rounded=0;exitX=1.001;exitY=0.339;exitDx=0;exitDy=0;exitPerimeter=0;strokeWidth=2;endFill=1;" parent="1" source="t1KUj5Thw46-gsd1N_Hx-87" edge="1">
          <mxGeometry x="0.0234" y="10" width="50" height="50" relative="1" as="geometry">
            <mxPoint x="1150" y="260" as="sourcePoint" />
            <mxPoint x="1228" y="250" as="targetPoint" />
            <mxPoint as="offset" />
          </mxGeometry>
        </mxCell>
        <mxCell id="t1KUj5Thw46-gsd1N_Hx-114" value="&lt;b&gt;ALUResult&lt;/b&gt;" style="endArrow=classicThin;html=1;rounded=0;strokeWidth=2;endFill=1;" parent="1" edge="1">
          <mxGeometry x="-0.4118" width="50" height="50" relative="1" as="geometry">
            <mxPoint x="900" y="400" as="sourcePoint" />
            <mxPoint x="1120" y="280" as="targetPoint" />
            <Array as="points">
              <mxPoint x="1080" y="400" />
              <mxPoint x="1080" y="280" />
            </Array>
            <mxPoint as="offset" />
          </mxGeometry>
        </mxCell>
        <mxCell id="t1KUj5Thw46-gsd1N_Hx-115" value="&lt;b&gt;ALUResult&lt;/b&gt;" style="endArrow=classicThin;html=1;rounded=0;entryX=0.526;entryY=0.997;entryDx=0;entryDy=0;entryPerimeter=0;strokeWidth=2;endFill=1;" parent="1" target="t1KUj5Thw46-gsd1N_Hx-110" edge="1">
          <mxGeometry x="0.0276" y="10" width="50" height="50" relative="1" as="geometry">
            <mxPoint x="1150" y="280" as="sourcePoint" />
            <mxPoint x="1140" y="270" as="targetPoint" />
            <mxPoint as="offset" />
          </mxGeometry>
        </mxCell>
        <mxCell id="t1KUj5Thw46-gsd1N_Hx-116" value="&lt;b&gt;pcPlus4&lt;/b&gt;" style="endArrow=classicThin;html=1;rounded=0;entryX=0.824;entryY=0.991;entryDx=0;entryDy=0;exitX=1.005;exitY=0.977;exitDx=0;exitDy=0;exitPerimeter=0;strokeWidth=2;endFill=1;entryPerimeter=0;" parent="1" source="t1KUj5Thw46-gsd1N_Hx-87" target="t1KUj5Thw46-gsd1N_Hx-110" edge="1">
          <mxGeometry x="0.7663" y="10" width="50" height="50" relative="1" as="geometry">
            <mxPoint x="1000" y="400" as="sourcePoint" />
            <mxPoint x="1050" y="350" as="targetPoint" />
            <Array as="points">
              <mxPoint x="1180" y="560" />
              <mxPoint x="1180" y="310" />
            </Array>
            <mxPoint as="offset" />
          </mxGeometry>
        </mxCell>
        <mxCell id="t1KUj5Thw46-gsd1N_Hx-117" value="" style="endArrow=classicThin;html=1;rounded=0;entryX=-0.022;entryY=0.572;entryDx=0;entryDy=0;entryPerimeter=0;exitX=0.5;exitY=0;exitDx=0;exitDy=0;strokeWidth=2;endFill=1;" parent="1" source="t1KUj5Thw46-gsd1N_Hx-51" target="t1KUj5Thw46-gsd1N_Hx-79" edge="1">
          <mxGeometry width="50" height="50" relative="1" as="geometry">
            <mxPoint x="690" y="360" as="sourcePoint" />
            <mxPoint x="840" y="280" as="targetPoint" />
          </mxGeometry>
        </mxCell>
        <mxCell id="t1KUj5Thw46-gsd1N_Hx-118" value="" style="endArrow=classicThin;html=1;rounded=0;exitX=0.987;exitY=0.571;exitDx=0;exitDy=0;exitPerimeter=0;entryX=-0.004;entryY=0.722;entryDx=0;entryDy=0;entryPerimeter=0;strokeWidth=2;endFill=1;" parent="1" source="t1KUj5Thw46-gsd1N_Hx-79" target="t1KUj5Thw46-gsd1N_Hx-75" edge="1">
          <mxGeometry width="50" height="50" relative="1" as="geometry">
            <mxPoint x="810" y="370" as="sourcePoint" />
            <mxPoint x="860" y="320" as="targetPoint" />
            <Array as="points">
              <mxPoint x="880" y="362" />
              <mxPoint x="880" y="320" />
            </Array>
          </mxGeometry>
        </mxCell>
        <mxCell id="t1KUj5Thw46-gsd1N_Hx-79" value="" style="rounded=0;whiteSpace=wrap;html=1;fillColor=#dae8fc;strokeColor=#6c8ebf;strokeWidth=2;" parent="1" vertex="1">
          <mxGeometry x="840" y="85" width="30" height="485" as="geometry" />
        </mxCell>
        <mxCell id="t1KUj5Thw46-gsd1N_Hx-119" value="&lt;b&gt;DataWB&lt;/b&gt;" style="endArrow=classicThin;html=1;rounded=0;exitX=0.526;exitY=-0.005;exitDx=0;exitDy=0;exitPerimeter=0;entryX=0;entryY=0.5;entryDx=0;entryDy=0;strokeWidth=2;endFill=1;" parent="1" source="t1KUj5Thw46-gsd1N_Hx-110" target="t3lFgOEBOsQBDX6AvOPy-38" edge="1">
          <mxGeometry x="-0.9703" y="-10" width="50" height="50" relative="1" as="geometry">
            <mxPoint x="1290" y="310" as="sourcePoint" />
            <mxPoint x="233.76" y="239.68000000000006" as="targetPoint" />
            <Array as="points">
              <mxPoint x="1280" y="280" />
              <mxPoint x="1280" y="600" />
              <mxPoint x="170" y="600" />
              <mxPoint x="170" y="215" />
            </Array>
            <mxPoint x="10" y="-10" as="offset" />
          </mxGeometry>
        </mxCell>
        <mxCell id="t1KUj5Thw46-gsd1N_Hx-120" value="&lt;b&gt;DataWB&lt;/b&gt;" style="endArrow=classicThin;html=1;rounded=0;entryX=0.75;entryY=1;entryDx=0;entryDy=0;strokeWidth=2;endFill=1;" parent="1" target="t1KUj5Thw46-gsd1N_Hx-10" edge="1">
          <mxGeometry x="0.6141" y="-10" width="50" height="50" relative="1" as="geometry">
            <mxPoint x="560" y="600" as="sourcePoint" />
            <mxPoint x="740" y="300" as="targetPoint" />
            <Array as="points">
              <mxPoint x="560" y="380" />
              <mxPoint x="560" y="231" />
            </Array>
            <mxPoint as="offset" />
          </mxGeometry>
        </mxCell>
        <mxCell id="t1KUj5Thw46-gsd1N_Hx-121" value="" style="endArrow=classicThin;html=1;rounded=0;entryX=0.783;entryY=0.996;entryDx=0;entryDy=0;entryPerimeter=0;strokeWidth=2;endFill=1;" parent="1" target="t1KUj5Thw46-gsd1N_Hx-12" edge="1">
          <mxGeometry width="50" height="50" relative="1" as="geometry">
            <mxPoint x="560" y="380" as="sourcePoint" />
            <mxPoint x="587" y="380.33" as="targetPoint" />
            <Array as="points">
              <mxPoint x="560" y="380.33" />
            </Array>
          </mxGeometry>
        </mxCell>
        <mxCell id="t1KUj5Thw46-gsd1N_Hx-123" value="&lt;b&gt;&lt;font color=&quot;#6c8ebf&quot;&gt;BrEq, BrLT, BrGE&lt;/font&gt;&lt;/b&gt;" style="endArrow=classicThin;html=1;rounded=0;entryX=0.5;entryY=1;entryDx=0;entryDy=0;exitX=0.5;exitY=0;exitDx=0;exitDy=0;edgeStyle=orthogonalEdgeStyle;fillColor=#dae8fc;strokeColor=#6c8ebf;strokeWidth=2;endFill=1;" parent="1" source="t1KUj5Thw46-gsd1N_Hx-14" target="t3lFgOEBOsQBDX6AvOPy-1" edge="1">
          <mxGeometry x="0.3169" y="-10" width="50" height="50" relative="1" as="geometry">
            <mxPoint x="420" y="330" as="sourcePoint" />
            <mxPoint x="254.5" y="110" as="targetPoint" />
            <Array as="points">
              <mxPoint x="470" y="381" />
              <mxPoint x="470" y="160" />
              <mxPoint x="264" y="160" />
              <mxPoint x="264" y="100" />
            </Array>
            <mxPoint as="offset" />
          </mxGeometry>
        </mxCell>
        <mxCell id="t1KUj5Thw46-gsd1N_Hx-124" value="&lt;b&gt;&lt;font color=&quot;#c73500&quot;&gt;RegWEn_MA&lt;/font&gt;&lt;/b&gt;" style="endArrow=classicThin;html=1;rounded=0;entryX=0.83;entryY=-0.001;entryDx=0;entryDy=0;entryPerimeter=0;fillColor=#fa6800;strokeColor=#C73500;endFill=1;strokeWidth=2;" parent="1" edge="1">
          <mxGeometry x="0.8185" width="50" height="50" relative="1" as="geometry">
            <mxPoint x="1060" y="460" as="sourcePoint" />
            <mxPoint x="797" y="680" as="targetPoint" />
            <Array as="points">
              <mxPoint x="1060" y="-70" />
              <mxPoint x="1060" y="460" />
              <mxPoint x="1060" y="640" />
              <mxPoint x="797" y="640" />
            </Array>
            <mxPoint as="offset" />
          </mxGeometry>
        </mxCell>
        <mxCell id="t1KUj5Thw46-gsd1N_Hx-125" value="&lt;b&gt;&lt;font color=&quot;#c73500&quot;&gt;RegWEn_WB&lt;/font&gt;&lt;/b&gt;" style="endArrow=classicThin;html=1;rounded=0;fillColor=#fa6800;strokeColor=#C73500;endFill=1;strokeWidth=2;" parent="1" edge="1">
          <mxGeometry x="0.8185" width="50" height="50" relative="1" as="geometry">
            <mxPoint x="1160" y="-70" as="sourcePoint" />
            <mxPoint x="840" y="706.75" as="targetPoint" />
            <Array as="points">
              <mxPoint x="1160" y="-70" />
              <mxPoint x="1160" y="707" />
              <mxPoint x="840" y="706.25" />
            </Array>
            <mxPoint as="offset" />
          </mxGeometry>
        </mxCell>
        <mxCell id="t1KUj5Thw46-gsd1N_Hx-126" value="" style="rounded=0;whiteSpace=wrap;html=1;fillColor=#dae8fc;strokeColor=#6c8ebf;strokeWidth=2;" parent="1" vertex="1">
          <mxGeometry x="11" y="80" width="30" height="500" as="geometry" />
        </mxCell>
        <mxCell id="t1KUj5Thw46-gsd1N_Hx-127" value="ALUResult_EX" style="endArrow=classicThin;html=1;rounded=0;strokeWidth=2;endFill=1;entryX=0.25;entryY=1;entryDx=0;entryDy=0;" parent="1" target="t1KUj5Thw46-gsd1N_Hx-9" edge="1">
          <mxGeometry x="0.3552" y="-10" width="50" height="50" relative="1" as="geometry">
            <mxPoint x="820" y="280" as="sourcePoint" />
            <mxPoint x="-200" y="260" as="targetPoint" />
            <Array as="points">
              <mxPoint x="820" y="610" />
              <mxPoint x="540" y="610" />
              <mxPoint x="-260" y="610" />
              <mxPoint x="-260" y="260" />
              <mxPoint x="-240" y="260" />
            </Array>
            <mxPoint as="offset" />
          </mxGeometry>
        </mxCell>
        <mxCell id="t1KUj5Thw46-gsd1N_Hx-131" value="" style="triangle;whiteSpace=wrap;html=1;rotation=-90;strokeWidth=2;" parent="1" vertex="1">
          <mxGeometry x="982.5" y="352.5" width="15" height="20" as="geometry" />
        </mxCell>
        <mxCell id="t1KUj5Thw46-gsd1N_Hx-132" value="" style="triangle;whiteSpace=wrap;html=1;rotation=0;strokeWidth=2;fillColor=#dae8fc;strokeColor=#6c8ebf;" parent="1" vertex="1">
          <mxGeometry x="11" y="509.99999999999994" width="15" height="20" as="geometry" />
        </mxCell>
        <mxCell id="t1KUj5Thw46-gsd1N_Hx-136" value="" style="triangle;whiteSpace=wrap;html=1;rotation=-90;strokeWidth=2;fillColor=#dae8fc;strokeColor=#6c8ebf;" parent="1" vertex="1">
          <mxGeometry x="847.5" y="551.3299999999999" width="15" height="20" as="geometry" />
        </mxCell>
        <mxCell id="t1KUj5Thw46-gsd1N_Hx-137" value="" style="triangle;whiteSpace=wrap;html=1;rotation=-90;strokeWidth=2;fillColor=#dae8fc;strokeColor=#6c8ebf;" parent="1" vertex="1">
          <mxGeometry x="1127.5" y="551.3299999999999" width="15" height="20" as="geometry" />
        </mxCell>
        <mxCell id="t1KUj5Thw46-gsd1N_Hx-140" value="&lt;b&gt;&lt;font style=&quot;font-size: 22px;&quot;&gt;IMEM&lt;/font&gt;&lt;/b&gt;" style="whiteSpace=wrap;html=1;aspect=fixed;strokeWidth=2;" parent="1" vertex="1">
          <mxGeometry x="-109" y="240" width="80" height="80" as="geometry" />
        </mxCell>
        <mxCell id="t1KUj5Thw46-gsd1N_Hx-141" value="" style="triangle;whiteSpace=wrap;html=1;strokeWidth=2;" parent="1" vertex="1">
          <mxGeometry x="737" y="272.5" width="20" height="15" as="geometry" />
        </mxCell>
        <mxCell id="t1KUj5Thw46-gsd1N_Hx-142" value="" style="endArrow=none;html=1;rounded=0;exitX=0.452;exitY=-0.002;exitDx=0;exitDy=0;exitPerimeter=0;strokeWidth=3;strokeColor=#ffffff;entryX=-0.016;entryY=0.131;entryDx=0;entryDy=0;entryPerimeter=0;" parent="1" target="t1KUj5Thw46-gsd1N_Hx-141" edge="1">
          <mxGeometry width="50" height="50" relative="1" as="geometry">
            <mxPoint x="736.8599999999997" y="285.7600000000002" as="sourcePoint" />
            <mxPoint x="737" y="280" as="targetPoint" />
          </mxGeometry>
        </mxCell>
        <mxCell id="t3lFgOEBOsQBDX6AvOPy-9" value="&lt;b&gt;&lt;font color=&quot;#ff0000&quot;&gt;stall_jmp&lt;/font&gt;&lt;/b&gt;" style="endArrow=classic;html=1;rounded=0;exitX=0;exitY=0.5;exitDx=0;exitDy=0;strokeColor=#ff0000;strokeWidth=2;entryX=0;entryY=0.25;entryDx=0;entryDy=0;" edge="1" parent="1" source="t3lFgOEBOsQBDX6AvOPy-1" target="t3lFgOEBOsQBDX6AvOPy-25">
          <mxGeometry x="-0.8326" width="50" height="50" relative="1" as="geometry">
            <mxPoint x="-239" y="130" as="sourcePoint" />
            <mxPoint x="-219" y="530" as="targetPoint" />
            <Array as="points">
              <mxPoint x="-349" y="-15" />
              <mxPoint x="-349" y="630" />
            </Array>
            <mxPoint as="offset" />
          </mxGeometry>
        </mxCell>
        <mxCell id="t3lFgOEBOsQBDX6AvOPy-10" value="&lt;b&gt;&lt;font style=&quot;font-size: 22px;&quot;&gt;PC&lt;/font&gt;&lt;/b&gt;" style="rounded=0;whiteSpace=wrap;html=1;" vertex="1" parent="1">
          <mxGeometry x="-243" y="218" width="60" height="125" as="geometry" />
        </mxCell>
        <mxCell id="t3lFgOEBOsQBDX6AvOPy-11" value="&lt;font style=&quot;font-size: 8px;&quot;&gt;&lt;b&gt;stall_jmp&lt;/b&gt;&lt;/font&gt;" style="text;html=1;align=center;verticalAlign=middle;whiteSpace=wrap;rounded=0;" vertex="1" parent="1">
          <mxGeometry x="-239" y="240" width="30" height="10" as="geometry" />
        </mxCell>
        <mxCell id="t3lFgOEBOsQBDX6AvOPy-12" value="&lt;font style=&quot;font-size: 8px;&quot;&gt;&lt;b&gt;axi_stall&lt;/b&gt;&lt;/font&gt;" style="text;html=1;align=center;verticalAlign=middle;whiteSpace=wrap;rounded=0;" vertex="1" parent="1">
          <mxGeometry x="-243" y="295" width="40" height="10" as="geometry" />
        </mxCell>
        <mxCell id="t3lFgOEBOsQBDX6AvOPy-13" value="&lt;font style=&quot;font-size: 8px;&quot;&gt;&lt;b&gt;axi_pc&lt;/b&gt;&lt;/font&gt;" style="text;html=1;align=center;verticalAlign=middle;whiteSpace=wrap;rounded=0;" vertex="1" parent="1">
          <mxGeometry x="-243" y="315" width="34" height="10" as="geometry" />
        </mxCell>
        <mxCell id="t3lFgOEBOsQBDX6AvOPy-14" value="" style="endArrow=classic;html=1;rounded=0;entryX=0;entryY=0.5;entryDx=0;entryDy=0;" edge="1" parent="1" target="t3lFgOEBOsQBDX6AvOPy-12">
          <mxGeometry width="50" height="50" relative="1" as="geometry">
            <mxPoint x="-269" y="380" as="sourcePoint" />
            <mxPoint x="-179" y="290" as="targetPoint" />
            <Array as="points">
              <mxPoint x="-269" y="320" />
              <mxPoint x="-269" y="300" />
            </Array>
          </mxGeometry>
        </mxCell>
        <mxCell id="t3lFgOEBOsQBDX6AvOPy-15" value="" style="endArrow=classic;html=1;rounded=0;entryX=0;entryY=0.5;entryDx=0;entryDy=0;" edge="1" parent="1" target="t3lFgOEBOsQBDX6AvOPy-13">
          <mxGeometry width="50" height="50" relative="1" as="geometry">
            <mxPoint x="-259" y="392.5" as="sourcePoint" />
            <mxPoint x="-243" y="332.5" as="targetPoint" />
            <Array as="points">
              <mxPoint x="-259" y="320" />
            </Array>
          </mxGeometry>
        </mxCell>
        <mxCell id="t3lFgOEBOsQBDX6AvOPy-18" value="" style="triangle;whiteSpace=wrap;html=1;rotation=0;strokeWidth=1;fontStyle=1" vertex="1" parent="1">
          <mxGeometry x="-243" y="326.5" width="12.5" height="12.5" as="geometry" />
        </mxCell>
        <mxCell id="t3lFgOEBOsQBDX6AvOPy-19" value="" style="rounded=0;whiteSpace=wrap;html=1;fillColor=#dae8fc;strokeColor=#6c8ebf;strokeWidth=2;" vertex="1" parent="1">
          <mxGeometry x="500" y="-120" width="30" height="200" as="geometry" />
        </mxCell>
        <mxCell id="t3lFgOEBOsQBDX6AvOPy-20" value="&lt;b style=&quot;&quot;&gt;&lt;font color=&quot;#6c8ebf&quot;&gt;pc_sel&lt;/font&gt;&lt;/b&gt;" style="endArrow=classicThin;html=1;rounded=0;exitX=0.796;exitY=0.099;exitDx=0;exitDy=0;entryX=-0.017;entryY=0.762;entryDx=0;entryDy=0;entryPerimeter=0;exitPerimeter=0;fillColor=#dae8fc;strokeColor=#6c8ebf;strokeWidth=2;endFill=1;" edge="1" parent="1">
          <mxGeometry width="50" height="50" relative="1" as="geometry">
            <mxPoint x="291.02" y="-90.00000000000004" as="sourcePoint" />
            <mxPoint x="500" y="-89.8" as="targetPoint" />
          </mxGeometry>
        </mxCell>
        <mxCell id="t3lFgOEBOsQBDX6AvOPy-1" value="&lt;span style=&quot;font-size: 22px;&quot;&gt;&lt;b&gt;CONTROL&lt;/b&gt;&lt;/span&gt;" style="ellipse;whiteSpace=wrap;html=1;fillColor=#dae8fc;strokeColor=#6c8ebf;" vertex="1" parent="1">
          <mxGeometry x="125" y="-130" width="120" height="230" as="geometry" />
        </mxCell>
        <mxCell id="t3lFgOEBOsQBDX6AvOPy-23" value="" style="endArrow=classic;html=1;rounded=0;entryX=0.5;entryY=1;entryDx=0;entryDy=0;exitX=1;exitY=0.5;exitDx=0;exitDy=0;" edge="1" parent="1" source="t3lFgOEBOsQBDX6AvOPy-25" target="t1KUj5Thw46-gsd1N_Hx-126">
          <mxGeometry width="50" height="50" relative="1" as="geometry">
            <mxPoint x="-69" y="640" as="sourcePoint" />
            <mxPoint x="111" y="510" as="targetPoint" />
            <Array as="points">
              <mxPoint x="26" y="640" />
            </Array>
          </mxGeometry>
        </mxCell>
        <mxCell id="t3lFgOEBOsQBDX6AvOPy-24" value="&lt;font style=&quot;font-size: 8px;&quot;&gt;flush&lt;/font&gt;" style="text;html=1;align=center;verticalAlign=middle;whiteSpace=wrap;rounded=0;" vertex="1" parent="1">
          <mxGeometry x="18.5" y="560" width="15" height="20" as="geometry" />
        </mxCell>
        <mxCell id="t3lFgOEBOsQBDX6AvOPy-25" value="&lt;b&gt;&lt;font style=&quot;font-size: 18px;&quot;&gt;OR&lt;/font&gt;&lt;/b&gt;" style="rounded=0;whiteSpace=wrap;html=1;" vertex="1" parent="1">
          <mxGeometry x="-109" y="620" width="41" height="40" as="geometry" />
        </mxCell>
        <mxCell id="t3lFgOEBOsQBDX6AvOPy-27" value="" style="endArrow=classic;html=1;rounded=0;entryX=0;entryY=0.25;entryDx=0;entryDy=0;strokeWidth=2;strokeColor=#ff0000;" edge="1" parent="1" target="t3lFgOEBOsQBDX6AvOPy-10">
          <mxGeometry width="50" height="50" relative="1" as="geometry">
            <mxPoint x="-349" y="200" as="sourcePoint" />
            <mxPoint x="-189" y="90" as="targetPoint" />
            <Array as="points">
              <mxPoint x="-269" y="200" />
              <mxPoint x="-269" y="249" />
            </Array>
          </mxGeometry>
        </mxCell>
        <mxCell id="t3lFgOEBOsQBDX6AvOPy-28" value="" style="endArrow=classic;html=1;rounded=0;entryX=0;entryY=0.75;entryDx=0;entryDy=0;" edge="1" parent="1" target="t3lFgOEBOsQBDX6AvOPy-25">
          <mxGeometry width="50" height="50" relative="1" as="geometry">
            <mxPoint x="-179" y="780" as="sourcePoint" />
            <mxPoint x="-229" y="360" as="targetPoint" />
            <Array as="points">
              <mxPoint x="-179" y="650" />
            </Array>
          </mxGeometry>
        </mxCell>
        <mxCell id="t3lFgOEBOsQBDX6AvOPy-29" value="" style="endArrow=classic;html=1;rounded=0;entryX=0;entryY=0.5;entryDx=0;entryDy=0;strokeWidth=2;strokeColor=#6c8ebf;" edge="1" parent="1" target="t3lFgOEBOsQBDX6AvOPy-25">
          <mxGeometry width="50" height="50" relative="1" as="geometry">
            <mxPoint x="-359" y="210" as="sourcePoint" />
            <mxPoint x="11" y="470" as="targetPoint" />
            <Array as="points">
              <mxPoint x="-359" y="640" />
            </Array>
          </mxGeometry>
        </mxCell>
        <mxCell id="t3lFgOEBOsQBDX6AvOPy-30" value="&lt;b&gt;&lt;font style=&quot;font-size: 18px;&quot;&gt;OR&lt;/font&gt;&lt;/b&gt;" style="rounded=0;whiteSpace=wrap;html=1;" vertex="1" parent="1">
          <mxGeometry x="-109" y="680" width="41" height="40" as="geometry" />
        </mxCell>
        <mxCell id="t3lFgOEBOsQBDX6AvOPy-31" value="" style="endArrow=classic;html=1;rounded=0;entryX=0;entryY=0.25;entryDx=0;entryDy=0;strokeWidth=2;strokeColor=#6c8ebf;" edge="1" parent="1" target="t3lFgOEBOsQBDX6AvOPy-30">
          <mxGeometry width="50" height="50" relative="1" as="geometry">
            <mxPoint x="-139" y="640" as="sourcePoint" />
            <mxPoint x="-89" y="560" as="targetPoint" />
            <Array as="points">
              <mxPoint x="-139" y="690" />
            </Array>
          </mxGeometry>
        </mxCell>
        <mxCell id="t3lFgOEBOsQBDX6AvOPy-32" value="" style="endArrow=classic;html=1;rounded=0;entryX=0;entryY=0.75;entryDx=0;entryDy=0;" edge="1" parent="1" target="t3lFgOEBOsQBDX6AvOPy-30">
          <mxGeometry width="50" height="50" relative="1" as="geometry">
            <mxPoint x="-179" y="710" as="sourcePoint" />
            <mxPoint x="-39" y="670" as="targetPoint" />
          </mxGeometry>
        </mxCell>
        <mxCell id="t3lFgOEBOsQBDX6AvOPy-33" value="" style="triangle;whiteSpace=wrap;html=1;rotation=0;strokeWidth=2;fillColor=#dae8fc;strokeColor=#6c8ebf;" vertex="1" parent="1">
          <mxGeometry x="500" y="510" width="15" height="20" as="geometry" />
        </mxCell>
        <mxCell id="t3lFgOEBOsQBDX6AvOPy-34" value="" style="rounded=0;whiteSpace=wrap;html=1;fillColor=#dae8fc;strokeColor=#6c8ebf;strokeWidth=2;" vertex="1" parent="1">
          <mxGeometry x="840" y="-120" width="30" height="205" as="geometry" />
        </mxCell>
        <mxCell id="t3lFgOEBOsQBDX6AvOPy-35" value="&lt;font style=&quot;font-size: 8px;&quot;&gt;flush&lt;/font&gt;" style="text;html=1;align=center;verticalAlign=middle;whiteSpace=wrap;rounded=0;" vertex="1" parent="1">
          <mxGeometry x="507.5" y="550" width="15" height="20" as="geometry" />
        </mxCell>
        <mxCell id="t3lFgOEBOsQBDX6AvOPy-36" value="" style="endArrow=classic;html=1;rounded=0;entryX=0.5;entryY=1;entryDx=0;entryDy=0;exitX=1;exitY=0.5;exitDx=0;exitDy=0;" edge="1" parent="1" source="t3lFgOEBOsQBDX6AvOPy-30" target="t3lFgOEBOsQBDX6AvOPy-35">
          <mxGeometry width="50" height="50" relative="1" as="geometry">
            <mxPoint x="31" y="700" as="sourcePoint" />
            <mxPoint x="125" y="640" as="targetPoint" />
            <Array as="points">
              <mxPoint x="160" y="700" />
              <mxPoint x="160" y="640" />
              <mxPoint x="515" y="640" />
            </Array>
          </mxGeometry>
        </mxCell>
        <mxCell id="t3lFgOEBOsQBDX6AvOPy-37" value="" style="rounded=0;whiteSpace=wrap;html=1;align=left;fontStyle=1;strokeWidth=2;" vertex="1" parent="1">
          <mxGeometry x="155" y="190" width="120" height="180" as="geometry" />
        </mxCell>
        <mxCell id="t3lFgOEBOsQBDX6AvOPy-38" value="&lt;b&gt;DataD&lt;/b&gt;" style="text;html=1;align=center;verticalAlign=middle;whiteSpace=wrap;rounded=0;" vertex="1" parent="1">
          <mxGeometry x="155" y="205" width="46" height="20" as="geometry" />
        </mxCell>
        <mxCell id="t3lFgOEBOsQBDX6AvOPy-39" value="&lt;b&gt;AddrD&lt;/b&gt;" style="text;html=1;align=center;verticalAlign=middle;whiteSpace=wrap;rounded=0;" vertex="1" parent="1">
          <mxGeometry x="155" y="230" width="46" height="20" as="geometry" />
        </mxCell>
        <mxCell id="t3lFgOEBOsQBDX6AvOPy-41" value="&lt;b&gt;AddrB&lt;/b&gt;" style="text;html=1;align=center;verticalAlign=middle;whiteSpace=wrap;rounded=0;" vertex="1" parent="1">
          <mxGeometry x="155" y="275" width="46" height="20" as="geometry" />
        </mxCell>
        <mxCell id="t3lFgOEBOsQBDX6AvOPy-42" value="&lt;b&gt;AXI_DataD&lt;/b&gt;" style="text;html=1;align=center;verticalAlign=middle;whiteSpace=wrap;rounded=0;" vertex="1" parent="1">
          <mxGeometry x="160" y="300" width="60" height="20" as="geometry" />
        </mxCell>
        <mxCell id="t3lFgOEBOsQBDX6AvOPy-43" value="&lt;b&gt;AXI_AddrD&lt;/b&gt;" style="text;html=1;align=center;verticalAlign=middle;whiteSpace=wrap;rounded=0;" vertex="1" parent="1">
          <mxGeometry x="161" y="325" width="60" height="20" as="geometry" />
        </mxCell>
        <mxCell id="t3lFgOEBOsQBDX6AvOPy-44" value="&lt;b&gt;AddrA&lt;/b&gt;" style="text;html=1;align=center;verticalAlign=middle;whiteSpace=wrap;rounded=0;" vertex="1" parent="1">
          <mxGeometry x="155" y="249.5" width="46" height="20" as="geometry" />
        </mxCell>
        <mxCell id="t3lFgOEBOsQBDX6AvOPy-46" value="" style="endArrow=classic;html=1;rounded=0;entryX=0.005;entryY=0.662;entryDx=0;entryDy=0;entryPerimeter=0;fontStyle=1;strokeWidth=2;" edge="1" parent="1" target="t3lFgOEBOsQBDX6AvOPy-37">
          <mxGeometry width="50" height="50" relative="1" as="geometry">
            <mxPoint x="131" y="750" as="sourcePoint" />
            <mxPoint x="161" y="290" as="targetPoint" />
            <Array as="points">
              <mxPoint x="131" y="309" />
            </Array>
          </mxGeometry>
        </mxCell>
        <mxCell id="t3lFgOEBOsQBDX6AvOPy-47" value="" style="endArrow=classic;html=1;rounded=0;entryX=0.005;entryY=0.662;entryDx=0;entryDy=0;entryPerimeter=0;" edge="1" parent="1">
          <mxGeometry width="50" height="50" relative="1" as="geometry">
            <mxPoint x="141" y="761.2308443509615" as="sourcePoint" />
            <mxPoint x="155" y="338" as="targetPoint" />
            <Array as="points">
              <mxPoint x="141" y="338" />
            </Array>
          </mxGeometry>
        </mxCell>
        <mxCell id="t3lFgOEBOsQBDX6AvOPy-56" style="edgeStyle=orthogonalEdgeStyle;rounded=0;orthogonalLoop=1;jettySize=auto;html=1;entryX=0.25;entryY=1;entryDx=0;entryDy=0;" edge="1" parent="1" source="t3lFgOEBOsQBDX6AvOPy-48" target="t1KUj5Thw46-gsd1N_Hx-14">
          <mxGeometry relative="1" as="geometry" />
        </mxCell>
        <mxCell id="t3lFgOEBOsQBDX6AvOPy-48" value="0&lt;span style=&quot;white-space: pre;&quot;&gt;&#x9;&lt;/span&gt;1&lt;span style=&quot;white-space: pre;&quot;&gt;&#x9;&lt;/span&gt;2&lt;span style=&quot;white-space: pre;&quot;&gt;&#x9;&lt;/span&gt;3" style="rounded=1;whiteSpace=wrap;html=1;arcSize=50;rotation=90;fontStyle=1;strokeWidth=2;" vertex="1" parent="1">
          <mxGeometry x="305" y="267.5" width="95" height="25" as="geometry" />
        </mxCell>
        <mxCell id="t3lFgOEBOsQBDX6AvOPy-55" style="edgeStyle=orthogonalEdgeStyle;rounded=0;orthogonalLoop=1;jettySize=auto;html=1;entryX=0.75;entryY=1;entryDx=0;entryDy=0;" edge="1" parent="1" source="t3lFgOEBOsQBDX6AvOPy-49" target="t1KUj5Thw46-gsd1N_Hx-14">
          <mxGeometry relative="1" as="geometry" />
        </mxCell>
        <mxCell id="t3lFgOEBOsQBDX6AvOPy-49" value="0&lt;span style=&quot;white-space: pre;&quot;&gt;&#x9;&lt;/span&gt;1&lt;span style=&quot;white-space: pre;&quot;&gt;&#x9;&lt;/span&gt;2&lt;span style=&quot;white-space: pre;&quot;&gt;&#x9;&lt;/span&gt;3" style="rounded=1;whiteSpace=wrap;html=1;arcSize=50;rotation=90;fontStyle=1;strokeWidth=2;" vertex="1" parent="1">
          <mxGeometry x="305" y="368" width="95" height="25" as="geometry" />
        </mxCell>
        <mxCell id="t3lFgOEBOsQBDX6AvOPy-50" value="&lt;b&gt;DataA&lt;/b&gt;" style="text;html=1;align=center;verticalAlign=middle;whiteSpace=wrap;rounded=0;" vertex="1" parent="1">
          <mxGeometry x="229" y="230" width="46" height="20" as="geometry" />
        </mxCell>
        <mxCell id="t3lFgOEBOsQBDX6AvOPy-51" value="&lt;b&gt;DataB&lt;/b&gt;" style="text;html=1;align=center;verticalAlign=middle;whiteSpace=wrap;rounded=0;" vertex="1" parent="1">
          <mxGeometry x="229" y="315" width="46" height="20" as="geometry" />
        </mxCell>
        <mxCell id="t3lFgOEBOsQBDX6AvOPy-53" value="&lt;b&gt;&lt;font style=&quot;font-size: 18px;&quot;&gt;REG_FILE&lt;/font&gt;&lt;/b&gt;" style="text;html=1;align=center;verticalAlign=middle;whiteSpace=wrap;rounded=0;" vertex="1" parent="1">
          <mxGeometry x="201" y="196" width="46" height="20" as="geometry" />
        </mxCell>
      </root>
    </mxGraphModel>
  </diagram>
</mxfile>
